<svg width="550" height="198" viewBox="0 0 550 198" fill="none" xmlns="http://www.w3.org/2000/svg">
<path d="M103.743 190.125V151.515H8.52951V130.455L88.5951 1.125H130.521V128.025H157.571V151.515H130.521V190.125H103.743ZM38.0131 128.025H105.095V18.945H104.013L38.0131 128.025ZM378.184 110.903C371.304 158.87 330.284 193.556 283.18 193.966L279.964 178.358L278.347 170.514L275.651 157.435L288.982 138.227L303.325 117.563L263.504 73.899L293.925 47.8103L299.939 42.6533L294.753 24.8378L292.363 16.6275L287.688 0.5625C290.432 0.72 293.186 0.99675 295.956 1.39275C348.957 8.96625 385.773 57.996 378.184 110.903Z" fill="white"/>
<path d="M270.278 158.965L283.18 193.968C278.323 194.741 273.413 195.147 268.495 195.183C214.955 195.581 171.23 152.582 170.827 99.1395C170.448 48.4875 209.122 6.633 258.743 2.05875L277.146 41.8545L245.787 78.174L291.685 115.418L270.278 158.965Z" fill="#C1FF72"/>
<path d="M360.895 76.5023C358.223 66.375 353.608 56.8617 347.305 48.4898C341.023 40.1018 333.171 33.0106 324.182 27.6097C314.466 21.762 303.625 18.021 292.366 16.6297L294.755 24.8377C303.741 26.3677 312.36 29.5655 320.165 34.2652C328.294 39.1515 335.396 45.5655 341.077 53.1517C346.778 60.7221 350.953 69.3256 353.368 78.4845C355.88 87.9766 356.445 97.8771 355.032 107.593C353.676 117.141 350.442 126.328 345.517 134.625C340.592 142.922 334.072 150.165 326.333 155.939C318.748 161.629 310.129 165.795 300.954 168.208C293.586 170.153 285.957 170.93 278.347 170.512L279.964 178.357C287.709 178.587 295.448 177.699 302.94 175.721C313.086 173.054 322.617 168.446 331.003 162.153C339.56 155.768 346.768 147.758 352.214 138.584C357.66 129.409 361.236 119.251 362.736 108.693C364.298 97.9484 363.672 86.9995 360.895 76.5023Z" fill="#C1FF72"/>
<path d="M277.669 179.01C274.586 179.382 271.485 179.58 268.38 179.602C257.504 179.704 246.719 177.615 236.671 173.459C226.976 169.456 218.151 163.612 210.686 156.251C203.203 148.912 197.218 140.194 193.064 130.579C188.748 120.612 186.493 109.878 186.432 99.0202C186.33 88.1639 188.425 77.3987 192.59 67.3695C196.6 57.6926 202.453 48.8845 209.825 41.4338C217.178 33.9622 225.914 27.9866 235.549 23.8388C245.102 19.7171 255.363 17.4785 265.767 17.2462L269.358 25.0087C258.805 24.7597 248.324 26.7954 238.635 30.9758C229.921 34.7262 222.02 40.1294 215.37 46.8855C208.702 53.6238 203.407 61.5898 199.778 70.3418C196.015 79.4112 194.124 89.1455 194.218 98.9618C194.271 108.779 196.309 118.485 200.209 127.499C203.968 136.195 209.382 144.081 216.15 150.719C223.024 157.495 231.171 162.85 240.124 166.473C249.078 170.097 258.66 171.919 268.321 171.835C270.53 171.817 272.723 171.704 274.899 171.495L277.669 179.01ZM485.659 190.125V151.515H390.446V130.455L470.511 1.125H512.438V128.025H539.487V151.515H512.438V190.125H485.659ZM419.93 128.025H487.011V18.945H485.93L419.93 128.025Z" fill="white"/>
</svg>
