<svg xmlns="http://www.w3.org/2000/svg" xmlns:xlink="http://www.w3.org/1999/xlink" width="500" zoomAndPan="magnify" viewBox="0 0 375.12 383.03998" height="500" preserveAspectRatio="xMidYMid meet" version="1.0"><defs><clipPath id="fdf8c44e0c"><path d="M 0.03125 0 L 374.09375 0 L 374.09375 374.0625 L 0.03125 374.0625 Z M 0.03125 0 " clip-rule="nonzero"/></clipPath></defs><g clip-path="url(#fdf8c44e0c)"><path fill="#f4eee2" d="M 187.0625 0 C 190.121094 0 193.179688 0.0742188 196.238281 0.226562 C 199.296875 0.375 202.347656 0.601562 205.394531 0.902344 C 208.441406 1.199219 211.476562 1.574219 214.503906 2.023438 C 217.53125 2.472656 220.546875 2.996094 223.550781 3.59375 C 226.550781 4.191406 229.535156 4.863281 232.507812 5.605469 C 235.476562 6.347656 238.425781 7.164062 241.355469 8.054688 C 244.28125 8.941406 247.1875 9.902344 250.070312 10.933594 C 252.953125 11.964844 255.808594 13.066406 258.636719 14.238281 C 261.464844 15.410156 264.261719 16.648438 267.027344 17.957031 C 269.792969 19.265625 272.527344 20.640625 275.226562 22.085938 C 277.925781 23.527344 280.589844 25.035156 283.214844 26.609375 C 285.839844 28.183594 288.425781 29.820312 290.96875 31.519531 C 293.515625 33.222656 296.015625 34.984375 298.476562 36.804688 C 300.933594 38.628906 303.347656 40.511719 305.710938 42.453125 C 308.078125 44.394531 310.394531 46.394531 312.664062 48.449219 C 314.933594 50.503906 317.148438 52.617188 319.3125 54.78125 C 321.476562 56.945312 323.585938 59.160156 325.640625 61.429688 C 327.699219 63.695312 329.695312 66.015625 331.636719 68.378906 C 333.582031 70.746094 335.460938 73.160156 337.285156 75.617188 C 339.109375 78.074219 340.871094 80.578125 342.570312 83.121094 C 344.273438 85.667969 345.910156 88.253906 347.484375 90.878906 C 349.058594 93.503906 350.566406 96.164062 352.007812 98.867188 C 353.449219 101.566406 354.828125 104.296875 356.136719 107.066406 C 357.445312 109.832031 358.683594 112.628906 359.855469 115.457031 C 361.027344 118.285156 362.128906 121.140625 363.160156 124.023438 C 364.191406 126.902344 365.152344 129.808594 366.039062 132.738281 C 366.925781 135.667969 367.742188 138.617188 368.488281 141.585938 C 369.230469 144.554688 369.902344 147.542969 370.5 150.542969 C 371.097656 153.546875 371.617188 156.558594 372.066406 159.589844 C 372.515625 162.617188 372.890625 165.652344 373.191406 168.699219 C 373.492188 171.746094 373.71875 174.796875 373.867188 177.855469 C 374.015625 180.910156 374.09375 183.96875 374.09375 187.03125 C 374.09375 190.09375 374.015625 193.152344 373.867188 196.207031 C 373.71875 199.265625 373.492188 202.316406 373.191406 205.363281 C 372.890625 208.410156 372.515625 211.445312 372.066406 214.472656 C 371.617188 217.503906 371.097656 220.515625 370.5 223.519531 C 369.902344 226.519531 369.230469 229.507812 368.488281 232.476562 C 367.742188 235.445312 366.925781 238.394531 366.039062 241.324219 C 365.148438 244.253906 364.191406 247.15625 363.160156 250.039062 C 362.128906 252.921875 361.027344 255.777344 359.855469 258.605469 C 358.683594 261.433594 357.445312 264.230469 356.136719 266.996094 C 354.828125 269.765625 353.449219 272.496094 352.007812 275.195312 C 350.566406 277.898438 349.058594 280.558594 347.484375 283.183594 C 345.910156 285.808594 344.273438 288.394531 342.570312 290.941406 C 340.871094 293.484375 339.109375 295.988281 337.285156 298.445312 C 335.460938 300.902344 333.582031 303.316406 331.636719 305.683594 C 329.695312 308.046875 327.699219 310.367188 325.640625 312.632812 C 323.585938 314.902344 321.476562 317.117188 319.3125 319.28125 C 317.148438 321.445312 314.933594 323.554688 312.664062 325.613281 C 310.394531 327.667969 308.078125 329.667969 305.710938 331.609375 C 303.347656 333.550781 300.933594 335.433594 298.476562 337.257812 C 296.015625 339.078125 293.515625 340.839844 290.96875 342.542969 C 288.425781 344.242188 285.839844 345.878906 283.214844 347.453125 C 280.589844 349.027344 277.925781 350.535156 275.226562 351.976562 C 272.527344 353.421875 269.792969 354.796875 267.027344 356.105469 C 264.261719 357.414062 261.464844 358.652344 258.636719 359.824219 C 255.808594 360.996094 252.953125 362.097656 250.070312 363.128906 C 247.1875 364.160156 244.28125 365.121094 241.355469 366.007812 C 238.425781 366.898438 235.476562 367.714844 232.507812 368.457031 C 229.535156 369.199219 226.550781 369.871094 223.550781 370.46875 C 220.546875 371.066406 217.53125 371.589844 214.503906 372.039062 C 211.476562 372.488281 208.441406 372.863281 205.394531 373.160156 C 202.347656 373.460938 199.296875 373.6875 196.238281 373.835938 C 193.179688 373.988281 190.121094 374.0625 187.0625 374.0625 C 184 374.0625 180.941406 373.988281 177.882812 373.835938 C 174.828125 373.6875 171.773438 373.460938 168.730469 373.160156 C 165.683594 372.863281 162.644531 372.488281 159.617188 372.039062 C 156.589844 371.589844 153.574219 371.066406 150.574219 370.46875 C 147.570312 369.871094 144.585938 369.199219 141.617188 368.457031 C 138.648438 367.714844 135.699219 366.898438 132.769531 366.007812 C 129.839844 365.121094 126.933594 364.160156 124.050781 363.128906 C 121.171875 362.097656 118.316406 360.996094 115.488281 359.824219 C 112.660156 358.652344 109.863281 357.414062 107.09375 356.105469 C 104.328125 354.796875 101.59375 353.421875 98.894531 351.976562 C 96.195312 350.535156 93.535156 349.027344 90.90625 347.453125 C 88.28125 345.878906 85.699219 344.242188 83.152344 342.542969 C 80.605469 340.839844 78.105469 339.078125 75.648438 337.257812 C 73.1875 335.433594 70.777344 333.550781 68.410156 331.609375 C 66.042969 329.667969 63.726562 327.667969 61.457031 325.613281 C 59.191406 323.554688 56.972656 321.445312 54.808594 319.28125 C 52.644531 317.117188 50.535156 314.902344 48.480469 312.632812 C 46.425781 310.367188 44.425781 308.046875 42.484375 305.683594 C 40.542969 303.316406 38.660156 300.902344 36.835938 298.445312 C 35.011719 295.988281 33.25 293.484375 31.550781 290.941406 C 29.851562 288.394531 28.210938 285.808594 26.640625 283.183594 C 25.066406 280.558594 23.558594 277.898438 22.113281 275.195312 C 20.671875 272.496094 19.296875 269.765625 17.988281 266.996094 C 16.679688 264.230469 15.4375 261.433594 14.265625 258.605469 C 13.09375 255.777344 11.996094 252.921875 10.964844 250.039062 C 9.933594 247.15625 8.972656 244.253906 8.082031 241.324219 C 7.195312 238.394531 6.378906 235.445312 5.636719 232.476562 C 4.890625 229.507812 4.222656 226.519531 3.625 223.519531 C 3.027344 220.515625 2.503906 217.503906 2.054688 214.472656 C 1.605469 211.445312 1.230469 208.410156 0.929688 205.363281 C 0.628906 202.316406 0.40625 199.265625 0.253906 196.207031 C 0.105469 193.152344 0.03125 190.09375 0.03125 187.03125 C 0.03125 183.96875 0.105469 180.910156 0.253906 177.855469 C 0.40625 174.796875 0.628906 171.746094 0.929688 168.699219 C 1.230469 165.652344 1.605469 162.617188 2.054688 159.589844 C 2.503906 156.558594 3.027344 153.546875 3.625 150.542969 C 4.222656 147.542969 4.890625 144.554688 5.636719 141.585938 C 6.378906 138.617188 7.195312 135.667969 8.082031 132.738281 C 8.972656 129.808594 9.933594 126.902344 10.964844 124.023438 C 11.996094 121.140625 13.09375 118.285156 14.265625 115.457031 C 15.4375 112.628906 16.679688 109.832031 17.988281 107.066406 C 19.296875 104.296875 20.671875 101.566406 22.113281 98.867188 C 23.558594 96.164062 25.066406 93.503906 26.640625 90.878906 C 28.210938 88.253906 29.851562 85.667969 31.550781 83.121094 C 33.25 80.578125 35.011719 78.074219 36.835938 75.617188 C 38.660156 73.160156 40.542969 70.746094 42.484375 68.378906 C 44.425781 66.015625 46.425781 63.695312 48.480469 61.429688 C 50.535156 59.160156 52.644531 56.945312 54.808594 54.78125 C 56.972656 52.617188 59.191406 50.503906 61.457031 48.449219 C 63.726562 46.394531 66.042969 44.394531 68.410156 42.453125 C 70.777344 40.511719 73.1875 38.628906 75.648438 36.804688 C 78.105469 34.984375 80.605469 33.222656 83.152344 31.519531 C 85.699219 29.820312 88.28125 28.183594 90.90625 26.609375 C 93.535156 25.035156 96.195312 23.527344 98.894531 22.085938 C 101.59375 20.640625 104.328125 19.265625 107.09375 17.957031 C 109.863281 16.648438 112.660156 15.410156 115.488281 14.238281 C 118.316406 13.066406 121.171875 11.964844 124.050781 10.933594 C 126.933594 9.902344 129.839844 8.941406 132.769531 8.054688 C 135.699219 7.164062 138.648438 6.347656 141.617188 5.605469 C 144.585938 4.863281 147.570312 4.191406 150.574219 3.59375 C 153.574219 2.996094 156.589844 2.472656 159.617188 2.023438 C 162.644531 1.574219 165.683594 1.199219 168.730469 0.902344 C 171.773438 0.601562 174.828125 0.375 177.882812 0.226562 C 180.941406 0.0742188 184 0 187.0625 0 Z M 187.0625 0 " fill-opacity="1" fill-rule="nonzero"/></g><path stroke-linecap="round" transform="matrix(5.844726, 0, 0, 5.844726, 0.0300098, 0.000000000000042526)" fill="none" stroke-linejoin="round" d="M 22.666881 32.000002 L 32.000215 22.666668 M 32.000215 22.666668 L 41.333549 32.000002 M 32.000215 22.666668 L 32.000215 41.334005 " stroke="#1f2a2e" stroke-width="2" stroke-opacity="1" stroke-miterlimit="4"/></svg>