<svg width="44" height="44" viewBox="0 0 44 44" fill="none" xmlns="http://www.w3.org/2000/svg">
<rect width="44" height="44" rx="22" fill="white"/>
<path d="M26.1408 26.1061C26.3529 26.3025 26.6027 26.4538 26.875 26.5508C27.1473 26.6478 27.4365 26.6884 27.725 26.6702C28.1822 26.6819 28.6305 26.5428 29.0008 26.2744C29.3025 26.0786 29.5308 25.7877 29.65 25.4494H31.8042C31.5741 26.4139 31.014 27.2676 30.2208 27.8627C29.4588 28.3679 28.5588 28.6241 27.645 28.5961C26.9927 28.6055 26.3453 28.4827 25.7417 28.2352C25.1956 28.0069 24.7056 27.6625 24.3058 27.2261C23.9089 26.7677 23.6034 26.2376 23.4058 25.6644C23.1843 25.0233 23.0763 24.3484 23.0867 23.6702C23.0825 23.0036 23.1942 22.3411 23.4167 21.7127C23.7164 20.829 24.2879 20.0626 25.0494 19.5232C25.811 18.9838 26.7235 18.699 27.6567 18.7094C28.3457 18.6962 29.0268 18.8576 29.6367 19.1786C30.1875 19.4802 30.6625 19.9036 31.0267 20.4161C31.3987 20.9535 31.6654 21.5567 31.8125 22.1936C31.9742 22.8777 32.0317 23.5819 31.9833 24.2836H25.5675C25.515 24.9419 25.7208 25.5952 26.1408 26.1061ZM17.7892 15.4036C18.3294 15.3932 18.8689 15.4486 19.3958 15.5686C19.8397 15.6655 20.2611 15.8459 20.6375 16.1002C20.9858 16.3527 21.2608 16.6927 21.4358 17.0852C21.6367 17.5677 21.7333 18.0877 21.72 18.6102C21.7436 19.1846 21.5969 19.7531 21.2983 20.2444C20.9859 20.709 20.553 21.0797 20.0458 21.3169C20.7332 21.5029 21.3319 21.9274 21.735 22.5144C22.1217 23.1369 22.3158 23.8602 22.2933 24.5927C22.3064 25.1767 22.1858 25.7558 21.9408 26.2861C21.7144 26.749 21.3824 27.1523 20.9717 27.4636C20.5495 27.7721 20.0741 28.0001 19.5692 28.1361C19.0463 28.2824 18.5055 28.3551 17.9625 28.3519H12V15.4036H17.7892ZM17.5933 26.1536C17.8511 26.1569 18.1056 26.1294 18.3567 26.0711C18.5852 26.0204 18.8018 25.9265 18.995 25.7944C19.185 25.6627 19.3375 25.4852 19.44 25.2786C19.5583 25.0144 19.6133 24.7261 19.5992 24.4377C19.6249 24.1745 19.5901 23.9088 19.4974 23.6611C19.4047 23.4134 19.2565 23.1902 19.0642 23.0086C18.6561 22.7086 18.1565 22.5598 17.6508 22.5877H14.7008V26.1536H17.5933ZM28.9558 21.1811C28.7763 21.0015 28.5604 20.8625 28.3226 20.7736C28.0849 20.6846 27.8308 20.6476 27.5775 20.6652C27.2412 20.6523 26.9074 20.7267 26.6083 20.8811C26.3718 21.0118 26.1629 21.1872 25.9933 21.3977C25.8434 21.5954 25.7314 21.8192 25.6633 22.0577C25.6017 22.2577 25.5636 22.4616 25.5492 22.6694H29.5233C29.4885 22.128 29.2913 21.6096 28.9575 21.1819L28.9558 21.1811ZM17.445 20.6411C17.8698 20.6587 18.2879 20.5315 18.6308 20.2802C18.9633 19.9844 19.1367 19.5469 19.0975 19.1027C19.1088 18.8469 19.0579 18.5921 18.9492 18.3602C18.8567 18.1759 18.7136 18.0218 18.5367 17.9161C18.3572 17.7997 18.1554 17.7219 17.9442 17.6877C17.715 17.6431 17.4818 17.6227 17.2483 17.6269H14.7008V20.6527H17.445V20.6411ZM30.0167 16.2686H25.0367V17.5411H30.0167V16.2686Z" fill="#1F2A2E"/>
</svg>
