<svg width="44" height="44" viewBox="0 0 44 44" fill="none" xmlns="http://www.w3.org/2000/svg">
<rect width="44" height="44" rx="22" fill="white"/>
<path d="M17.7833 16.1665C17.7831 16.6086 17.6073 17.0324 17.2946 17.3448C16.9819 17.6572 16.5579 17.8326 16.1158 17.8324C15.6738 17.8321 15.25 17.6563 14.9376 17.3436C14.6252 17.0309 14.4498 16.6069 14.45 16.1649C14.4502 15.7228 14.626 15.299 14.9388 14.9866C15.2515 14.6742 15.6755 14.4988 16.1175 14.499C16.5595 14.4992 16.9834 14.6751 17.2958 14.9878C17.6082 15.3005 17.7836 15.7245 17.7833 16.1665ZM17.8333 19.0665H14.5V29.4999H17.8333V19.0665ZM23.1 19.0665H19.7833V29.4999H23.0667V24.0249C23.0667 20.9749 27.0417 20.6915 27.0417 24.0249V29.4999H30.3333V22.8915C30.3333 17.7499 24.45 17.9415 23.0667 20.4665L23.1 19.0665Z" fill="#1F2A2E"/>
</svg>
