<svg width="24" height="25" viewBox="0 0 24 25" fill="none" xmlns="http://www.w3.org/2000/svg">
<path d="M20 10.5C20 15.493 14.461 20.693 12.601 22.299C12.4277 22.4293 12.2168 22.4998 12 22.4998C11.7832 22.4998 11.5723 22.4293 11.399 22.299C9.539 20.693 4 15.493 4 10.5C4 8.37827 4.84285 6.34344 6.34315 4.84315C7.84344 3.34285 9.87827 2.5 12 2.5C14.1217 2.5 16.1566 3.34285 17.6569 4.84315C19.1571 6.34344 20 8.37827 20 10.5Z" stroke="#C1FF72" stroke-width="1.5" stroke-linecap="round" stroke-linejoin="round"/>
<path d="M12 13.5C13.6569 13.5 15 12.1569 15 10.5C15 8.84315 13.6569 7.5 12 7.5C10.3431 7.5 9 8.84315 9 10.5C9 12.1569 10.3431 13.5 12 13.5Z" stroke="#C1FF72" stroke-width="1.5" stroke-linecap="round" stroke-linejoin="round"/>
</svg>
