<svg xmlns="http://www.w3.org/2000/svg" xmlns:xlink="http://www.w3.org/1999/xlink" width="500" zoomAndPan="magnify" viewBox="0 0 375.12 383.03998" height="500" preserveAspectRatio="xMidYMid meet" version="1.0"><defs><clipPath id="25b3b53df7"><path d="M 63.386719 0 L 311 0 L 311 374 L 63.386719 374 Z M 63.386719 0 " clip-rule="nonzero"/></clipPath></defs><g clip-path="url(#25b3b53df7)"><path fill="#f4eee2" d="M 274.316406 36.195312 C 298.59375 60.273438 310.734375 89.410156 310.734375 123.601562 C 310.734375 150.714844 292.828125 196.339844 257.015625 260.480469 C 240.019531 291.03125 222.820312 319.558594 205.421875 346.0625 L 186.910156 373.984375 L 168.699219 346.0625 C 151.300781 319.558594 134 291.03125 116.800781 260.480469 C 81.191406 196.136719 63.386719 150.511719 63.386719 123.601562 C 63.386719 89.410156 75.527344 60.273438 99.804688 36.195312 C 123.882812 12.121094 152.917969 0.0820312 186.910156 0.0820312 C 221.101562 0.0820312 250.238281 12.121094 274.316406 36.195312 M 186.910156 58.65625 C 169.304688 58.65625 154.234375 64.929688 141.6875 77.472656 C 129.144531 90.015625 122.871094 105.089844 122.871094 122.691406 C 122.871094 140.496094 129.144531 155.671875 141.6875 168.21875 C 154.234375 180.761719 169.304688 187.035156 186.910156 187.035156 C 204.714844 187.035156 219.886719 180.761719 232.433594 168.21875 C 244.976562 155.671875 251.25 140.496094 251.25 122.691406 C 251.25 105.089844 244.976562 90.015625 232.433594 77.472656 C 219.886719 64.929688 204.714844 58.65625 186.910156 58.65625 " fill-opacity="1" fill-rule="nonzero"/></g></svg>