<svg width="208" height="36" viewBox="0 0 208 36" fill="none" xmlns="http://www.w3.org/2000/svg">
<g clip-path="url(#clip0_113_1403)">
<path d="M53.7992 2.12465C51.743 1.12572 49.4342 0.56543 46.9946 0.56543C44.5549 0.56543 42.2462 1.12572 40.1899 2.12465H53.7992Z" fill="#1F2A2E" fill-opacity="0.7"/>
<path d="M38.531 3.05892C38.6962 2.9519 38.8637 2.84793 39.0332 2.74707H54.9559C55.8612 3.28572 56.7073 3.91344 57.4821 4.61814H36.507C36.6232 4.51245 36.741 4.40849 36.8604 4.30629H21.2682C21.3437 4.24162 21.4199 4.17765 21.4967 4.1144H6.13837C6.40828 3.89756 6.68556 3.68952 6.96978 3.49071H22.3064C22.5135 3.34177 22.7244 3.19778 22.9388 3.05892H38.531Z" fill="#1F2A2E" fill-opacity="0.7"/>
<path d="M59.6977 7.11326C59.2239 6.44894 58.6993 5.82336 58.1296 5.24219H35.8594C35.7589 5.34476 35.6598 5.44873 35.562 5.55403H19.9698C19.8385 5.69554 19.7098 5.83951 19.5838 5.98583H4.18237C4.00365 6.1891 3.83014 6.39707 3.66205 6.60951H19.0739C19.0246 6.67309 18.9757 6.73706 18.9274 6.80141H34.5196C34.4423 6.90438 34.3662 7.00833 34.2914 7.11326H59.6977Z" fill="#1F2A2E" fill-opacity="0.7"/>
<path d="M33.6735 8.04917C33.7375 7.94438 33.8026 7.84044 33.8689 7.7373H60.1202C60.504 8.33435 60.8481 8.95926 61.1489 9.60836H32.8401C32.8886 9.5038 32.9382 9.39987 32.9888 9.29649H17.3967C17.4282 9.23231 17.4601 9.16838 17.4925 9.10459H2.04828C2.15766 8.89391 2.27171 8.6859 2.39029 8.48093H17.8274C17.9098 8.33552 17.9945 8.1916 18.0814 8.04917H33.6735Z" fill="#1F2A2E" fill-opacity="0.7"/>
<path d="M62.0545 12.1035C61.8825 11.4625 61.6705 10.8378 61.4216 10.2324H32.5676C32.5251 10.3358 32.4836 10.4397 32.4433 10.5442H16.8511C16.7959 10.6871 16.7428 10.8311 16.6917 10.9761H1.22876C1.15432 11.182 1.0841 11.3899 1.01819 11.5997H16.4868C16.4674 11.6635 16.4483 11.7274 16.4296 11.7916H32.0219C31.9917 11.8951 31.9626 11.9991 31.9346 12.1035H62.0545Z" fill="#1F2A2E" fill-opacity="0.7"/>
<path d="M31.7143 13.0384C31.7354 12.934 31.7576 12.8301 31.7809 12.7266H62.2081C62.3453 13.3375 62.4466 13.9619 62.5098 14.5976H31.4793C31.4896 14.4934 31.501 14.3894 31.5134 14.2858H15.9212C15.9289 14.2217 15.9369 14.1577 15.9454 14.0939H0.455933C0.485248 13.8846 0.518717 13.6767 0.556253 13.4702H16.0407C16.0658 13.3256 16.0929 13.1816 16.122 13.0384H31.7143Z" fill="#1F2A2E" fill-opacity="0.7"/>
<path d="M62.5867 16.1572C62.5867 16.4713 62.5774 16.7833 62.5591 17.0927H31.4299C31.4237 16.9891 31.4186 16.8851 31.4146 16.7809H15.8224C15.8198 16.7171 15.8177 16.6531 15.8159 16.5891H0.307378C0.305343 16.4854 0.304321 16.3813 0.304321 16.2772C0.304321 16.173 0.305343 16.069 0.307378 15.9653H15.8112C15.813 15.8209 15.8167 15.677 15.8224 15.5335H31.4146C31.4186 15.4293 31.4237 15.3254 31.4299 15.2217H62.5591C62.5774 15.5312 62.5867 15.8431 62.5867 16.1572Z" fill="#1F2A2E" fill-opacity="0.7"/>
<path d="M62.5098 17.7158C62.4466 18.3515 62.3453 18.976 62.2081 19.5869H31.7809C31.7576 19.4833 31.7354 19.3793 31.7143 19.275H16.122C16.109 19.2112 16.0965 19.1472 16.0843 19.0831H0.556253C0.518717 18.8766 0.485248 18.6687 0.455933 18.4595H15.979C15.9578 18.3162 15.9385 18.1722 15.9212 18.0276H31.5134C31.501 17.924 31.4896 17.8201 31.4793 17.7158H62.5098Z" fill="#1F2A2E" fill-opacity="0.7"/>
<path d="M32.4433 21.7701C32.4836 21.8747 32.5251 21.9786 32.5676 22.082H61.4216C61.6705 21.4765 61.8825 20.8519 62.0545 20.2109H31.9346C31.9626 20.3153 31.9917 20.4193 32.0219 20.5228H16.4296C16.4718 20.6676 16.516 20.8115 16.5622 20.9546H1.01819C1.0841 21.1644 1.15432 21.3723 1.22876 21.5782H16.7784C16.8022 21.6424 16.8265 21.7064 16.8511 21.7701H32.4433Z" fill="#1F2A2E" fill-opacity="0.7"/>
<path d="M61.1489 22.7061C60.8481 23.3552 60.504 23.9801 60.1202 24.5771H33.8689C33.8026 24.474 33.7375 24.37 33.6735 24.2653H18.0814C18.0425 24.2016 18.0041 24.1377 17.9662 24.0734H2.39029C2.27171 23.8684 2.15766 23.6604 2.04828 23.4497H17.617C17.5414 23.3071 17.4679 23.1632 17.3967 23.0179H32.9888C32.9382 22.9146 32.8886 22.8107 32.8401 22.7061H61.1489Z" fill="#1F2A2E" fill-opacity="0.7"/>
<path d="M35.562 26.7604C35.6598 26.8657 35.7589 26.9696 35.8594 27.0722H58.1296C58.6993 26.4911 59.2239 25.8655 59.6977 25.2012H34.2914C34.3662 25.306 34.4423 25.41 34.5196 25.513H18.9274C19.037 25.6589 19.1491 25.8029 19.2637 25.9448H3.66205C3.83014 26.1572 4.00365 26.3652 4.18237 26.5685H19.7947C19.8526 26.633 19.9109 26.6969 19.9698 26.7604H35.562Z" fill="#1F2A2E" fill-opacity="0.7"/>
<path d="M57.4821 27.6953C56.7073 28.4001 55.8612 29.0278 54.9559 29.5664H39.0332C38.8637 29.4656 38.6962 29.3616 38.531 29.2546H22.9388C22.8416 29.1917 22.7452 29.1276 22.6495 29.0627H6.96978C6.68556 28.8638 6.40828 28.6558 6.13837 28.4389H21.7953C21.6164 28.2988 21.4406 28.1549 21.2682 28.0072H36.8604C36.741 27.905 36.6232 27.801 36.507 27.6953H57.4821Z" fill="#1F2A2E" fill-opacity="0.7"/>
<path d="M40.1899 30.1904C42.2462 31.1894 44.5549 31.7496 46.9946 31.7496C49.4342 31.7496 51.743 31.1894 53.7992 30.1904H40.1899Z" fill="#1F2A2E" fill-opacity="0.7"/>
<path d="M21.2286 1.6201C19.565 1.01476 17.7693 0.68457 15.8965 0.68457C14.0237 0.68457 12.228 1.01476 10.5644 1.6201H21.2286Z" fill="#1F2A2E" fill-opacity="0.7"/>
<path d="M10.5644 30.9336C12.228 31.5389 14.0237 31.8691 15.8965 31.8691C17.7693 31.8691 19.565 31.5389 21.2286 30.9336H10.5644Z" fill="#1F2A2E" fill-opacity="0.7"/>
<path d="M31.4023 0.56543C33.5752 0.56543 35.6442 1.00987 37.5234 1.8128H25.2812C27.1605 1.00987 29.2295 0.56543 31.4023 0.56543Z" fill="#1F2A2E" fill-opacity="0.7"/>
<path d="M31.4023 31.7494C29.2295 31.7494 27.1605 31.3049 25.2812 30.502H37.5234C35.6442 31.3049 33.5752 31.7494 31.4023 31.7494Z" fill="#1F2A2E" fill-opacity="0.7"/>
<path d="M203.425 35.3538V29.8066H204.24V35.3538H203.425ZM206.569 35.3538L203.938 32.6332V32.5436L206.602 29.8066H207.62L204.679 32.8287L204.761 32.3481L207.669 35.3538H206.569Z" fill="#1F2A2E" fill-opacity="0.7"/>
<path d="M198.374 35.3538V29.8066H200.41C200.791 29.8066 201.122 29.8881 201.404 30.051C201.692 30.2085 201.915 30.4229 202.072 30.6945C202.23 30.966 202.308 31.2701 202.308 31.6068C202.308 31.9435 202.23 32.2476 202.072 32.5191C201.915 32.7906 201.692 33.0052 201.404 33.1626C201.122 33.3201 200.791 33.3988 200.41 33.3988H199.042V32.6332H200.272C200.63 32.6332 200.918 32.5436 201.136 32.3644C201.353 32.1797 201.461 31.9272 201.461 31.6068C201.461 31.2647 201.353 31.0068 201.136 30.833C200.918 30.6592 200.63 30.5723 200.272 30.5723H199.034L199.189 30.385V35.3538H198.374ZM201.469 35.3538L200.174 33.0486H201.07L202.365 35.3538H201.469Z" fill="#1F2A2E" fill-opacity="0.7"/>
<path d="M191.698 32.5844C191.698 32.1717 191.768 31.7915 191.91 31.444C192.056 31.0965 192.259 30.7951 192.52 30.5398C192.781 30.2846 193.085 30.0864 193.433 29.9452C193.786 29.804 194.168 29.7334 194.581 29.7334C194.988 29.7334 195.366 29.804 195.713 29.9452C196.061 30.0864 196.362 30.2846 196.618 30.5398C196.878 30.7951 197.079 31.0965 197.22 31.444C197.367 31.7915 197.44 32.1717 197.44 32.5844C197.44 32.9916 197.367 33.3691 197.22 33.7166C197.079 34.0642 196.878 34.3682 196.618 34.6289C196.362 34.8841 196.061 35.0824 195.713 35.2236C195.366 35.3647 194.988 35.4353 194.581 35.4353C194.168 35.4353 193.786 35.3647 193.433 35.2236C193.085 35.0824 192.781 34.8841 192.52 34.6289C192.259 34.3682 192.056 34.0642 191.91 33.7166C191.768 33.3691 191.698 32.9916 191.698 32.5844ZM192.529 32.5844C192.529 32.9808 192.618 33.3365 192.797 33.6515C192.976 33.961 193.22 34.2054 193.53 34.3845C193.84 34.5637 194.19 34.6533 194.581 34.6533C194.972 34.6533 195.319 34.5637 195.624 34.3845C195.928 34.2054 196.167 33.961 196.341 33.6515C196.52 33.3365 196.609 32.9808 196.609 32.5844C196.609 32.1825 196.52 31.8268 196.341 31.5173C196.167 31.2078 195.928 30.9634 195.624 30.7842C195.319 30.605 194.972 30.5154 194.581 30.5154C194.19 30.5154 193.84 30.605 193.53 30.7842C193.22 30.9634 192.976 31.2078 192.797 31.5173C192.618 31.8268 192.529 32.1825 192.529 32.5844Z" fill="#1F2A2E" fill-opacity="0.7"/>
<path d="M188.99 35.3538L187.468 30.4094L187.28 29.8066H188.079L189.635 34.9465L189.276 34.865L190.628 29.8066H191.451L189.944 35.3538H188.99ZM185.415 35.3538L183.908 29.8066H184.731L186.083 34.865L185.725 34.9465L187.28 29.8066H188.079L187.891 30.4094L186.368 35.3538H185.415Z" fill="#1F2A2E" fill-opacity="0.7"/>
<path d="M181.035 35.3538V30.4175H181.85V35.3538H181.035ZM179.3 30.5723V29.8066H183.666V30.5723H179.3Z" fill="#1F2A2E" fill-opacity="0.7"/>
<path d="M176.052 32.9509V32.1851H178.292V32.9509H176.052ZM176.028 30.5723L176.215 30.3117V34.7103L175.987 34.5799H178.773V35.3538H175.401V29.8066H178.773V30.5723H176.028Z" fill="#1F2A2E" fill-opacity="0.7"/>
<path d="M173.322 35.3538L169.738 30.7027L170.194 30.5723V35.3538H169.379V29.8066H170.072L173.533 34.2949H173.2V29.8066H174.014V35.3538H173.322Z" fill="#1F2A2E" fill-opacity="0.7"/>
<path d="M132.551 9.05273V24.0432H137.027V9.05273H132.551Z" fill="#1F2A2E" fill-opacity="0.7"/>
<path d="M132.858 2.40079C132.388 2.89125 132.153 3.535 132.153 4.33204C132.153 5.10867 132.388 5.7422 132.858 6.23267C133.349 6.70275 133.992 6.93776 134.789 6.93776C135.586 6.93776 136.22 6.70275 136.69 6.23267C137.18 5.7422 137.425 5.10867 137.425 4.33204C137.425 3.535 137.18 2.89125 136.69 2.40079C136.22 1.91027 135.586 1.66504 134.789 1.66504C133.992 1.66504 133.349 1.91027 132.858 2.40079Z" fill="#1F2A2E" fill-opacity="0.7"/>
<path d="M157.912 23.7978C158.975 24.268 160.109 24.5029 161.315 24.5029C162.459 24.5029 163.481 24.2986 164.381 23.8899C165.28 23.4811 165.985 22.9089 166.496 22.1731C167.006 21.417 167.262 20.5484 167.262 19.5674C167.262 18.3003 166.854 17.2887 166.036 16.5326C165.239 15.7763 163.91 15.1735 162.051 14.7239C160.947 14.4582 160.212 14.2232 159.844 14.0188C159.475 13.8144 159.291 13.559 159.291 13.2524C159.291 12.9254 159.445 12.6802 159.751 12.5167C160.058 12.3531 160.426 12.2714 160.855 12.2714C161.652 12.2714 162.368 12.4145 163.001 12.7006C163.635 12.9867 164.176 13.3341 164.626 13.7429L167.385 11.3825C166.731 10.6058 165.903 9.95185 164.902 9.42046C163.9 8.86864 162.684 8.59277 161.253 8.59277C160.048 8.59277 159.006 8.81754 158.127 9.26723C157.248 9.71683 156.573 10.3197 156.104 11.0758C155.633 11.8116 155.399 12.6291 155.399 13.5283C155.399 14.775 155.777 15.7763 156.533 16.5326C157.309 17.2682 158.484 17.8303 160.058 18.2185C160.917 18.4434 161.57 18.6376 162.02 18.801C162.469 18.9645 162.776 19.128 162.94 19.2915C163.103 19.455 163.185 19.6594 163.185 19.9046C163.185 20.1907 163.042 20.436 162.756 20.6403C162.49 20.8242 162.132 20.9162 161.683 20.9162C160.927 20.9162 160.232 20.763 159.598 20.4564C158.965 20.1499 158.301 19.639 157.606 18.9237L155.061 21.3761C155.92 22.5205 156.87 23.3278 157.912 23.7978Z" fill="#1F2A2E" fill-opacity="0.7"/>
<path d="M184.674 24.0439V9.05345H187.984L188.514 10.7653C188.708 10.5982 188.91 10.4363 189.119 10.2796C189.772 9.7891 190.488 9.40085 191.265 9.11473C192.041 8.82861 192.849 8.68555 193.686 8.68555C194.688 8.68555 195.485 8.85929 196.078 9.20669C196.691 9.53366 197.151 9.99352 197.457 10.5862C197.503 10.6695 197.547 10.7546 197.588 10.8412C197.812 10.6472 198.045 10.46 198.285 10.2796C198.938 9.7891 199.643 9.40085 200.4 9.11473C201.177 8.82861 201.983 8.68555 202.822 8.68555C203.823 8.68555 204.63 8.85929 205.244 9.20669C205.857 9.53366 206.317 9.99352 206.623 10.5862C206.929 11.1789 207.144 11.8533 207.267 12.6095C207.39 13.3452 207.451 14.1115 207.451 14.9086V24.0439H202.944V15.1539C202.944 14.2955 202.791 13.7335 202.484 13.4678C202.199 13.1816 201.831 13.0386 201.381 13.0386C200.727 13.0386 200.093 13.2328 199.481 13.6211C199.05 13.8791 198.65 14.1923 198.281 14.5609C198.283 14.6762 198.285 14.7921 198.285 14.9086V24.0439H193.809V15.1539C193.809 14.2955 193.656 13.7335 193.349 13.4678C193.043 13.1816 192.665 13.0386 192.215 13.0386C191.581 13.0386 190.958 13.2328 190.345 13.6211C189.916 13.8782 189.518 14.1901 189.149 14.557V24.0439H184.674Z" fill="#1F2A2E" fill-opacity="0.7"/>
<path d="M173.677 24.4111C172.574 24.4111 171.675 24.2476 170.98 23.9206C170.305 23.5936 169.774 23.144 169.385 22.5718C169.018 21.9791 168.762 21.3149 168.619 20.5792C168.496 19.8229 168.435 19.0259 168.435 18.188V9.05273H172.911V17.9428C172.911 18.7807 173.085 19.3427 173.432 19.6288C173.78 19.8945 174.209 20.0273 174.72 20.0273C175.169 20.0273 175.609 19.9558 176.038 19.8127C176.466 19.6493 176.886 19.4244 177.294 19.1384C177.51 18.9765 177.715 18.7976 177.908 18.6016V9.05273H182.414V24.0432H179.073L178.546 22.3399C178.361 22.5018 178.169 22.6608 177.969 22.8169C177.335 23.3075 176.661 23.6958 175.946 23.9819C175.231 24.2681 174.474 24.4111 173.677 24.4111Z" fill="#1F2A2E" fill-opacity="0.7"/>
<path fill-rule="evenodd" clip-rule="evenodd" d="M147.631 24.4118C146.302 24.4118 145.148 24.1155 144.167 23.5228C144.109 23.4856 144.052 23.4476 143.995 23.4085C143.939 23.3698 143.884 23.3302 143.829 23.2897V29.8685H139.354V9.05345H142.695L143.137 10.5463C143.465 10.1972 143.829 9.89366 144.228 9.63587C145.209 9.00235 146.353 8.68555 147.662 8.68555C149.031 8.68555 150.226 9.02277 151.248 9.69723C152.291 10.3512 153.098 11.2708 153.67 12.4562C154.263 13.6415 154.559 15.0108 154.559 16.564C154.559 18.0967 154.263 19.4558 153.67 20.6411C153.077 21.8265 152.26 22.7564 151.218 23.4308C150.175 24.0848 148.98 24.4118 147.631 24.4118ZM146.803 20.212C147.723 20.212 148.479 19.8748 149.072 19.2004C149.685 18.5055 149.992 17.6268 149.992 16.564C149.992 15.4809 149.685 14.6021 149.072 13.9276C148.479 13.2328 147.723 12.8853 146.803 12.8853C145.904 12.8853 145.148 13.2328 144.534 13.9276C143.922 14.6021 143.615 15.4706 143.615 16.5334C143.615 17.6165 143.922 18.5055 144.534 19.2004C145.148 19.8748 145.904 20.212 146.803 20.212Z" fill="#1F2A2E" fill-opacity="0.7"/>
<path fill-rule="evenodd" clip-rule="evenodd" d="M123.186 24.4118C121.632 24.4118 120.263 24.0848 119.078 23.4308C117.892 22.7564 116.973 21.8265 116.318 20.6411C115.665 19.4558 115.338 18.0967 115.338 16.564C115.338 15.0108 115.665 13.6415 116.318 12.4562C116.973 11.2708 117.892 10.3512 119.078 9.69723C120.263 9.02277 121.632 8.68555 123.186 8.68555C124.759 8.68555 126.138 9.02277 127.324 9.69723C128.509 10.3512 129.429 11.2708 130.083 12.4562C130.757 13.6415 131.095 15.0108 131.095 16.564C131.095 18.0967 130.757 19.4558 130.083 20.6411C129.429 21.8265 128.509 22.7564 127.324 23.4308C126.138 24.0848 124.759 24.4118 123.186 24.4118ZM123.186 20.0587C124.187 20.0587 124.994 19.7419 125.607 19.1084C126.241 18.4545 126.557 17.6063 126.557 16.564C126.557 15.5013 126.241 14.6429 125.607 13.9889C124.994 13.3349 124.187 13.008 123.186 13.008C122.225 13.008 121.428 13.3349 120.794 13.9889C120.181 14.6225 119.874 15.4706 119.874 16.5334C119.874 17.5961 120.181 18.4545 120.794 19.1084C121.428 19.7419 122.225 20.0587 123.186 20.0587Z" fill="#1F2A2E" fill-opacity="0.7"/>
<path fill-rule="evenodd" clip-rule="evenodd" d="M103.893 29.8071C104.731 30.0524 105.548 30.175 106.345 30.175C107.96 30.175 109.339 29.8582 110.484 29.2246C111.648 28.5911 112.537 27.6511 113.151 26.4044C113.764 25.1577 114.071 23.6556 114.071 21.898V9.05345H110.729L110.234 10.6968C109.868 10.2746 109.45 9.91072 108.981 9.60527C108.041 8.9921 106.948 8.68555 105.701 8.68555C104.373 8.68555 103.188 9.00235 102.145 9.63587C101.103 10.249 100.286 11.1073 99.6933 12.2109C99.1204 13.2941 98.8348 14.551 98.8348 15.9816C98.8348 17.3917 99.1306 18.6485 99.7238 19.7522C100.337 20.8557 101.154 21.7141 102.176 22.3272C103.218 22.9404 104.414 23.2468 105.762 23.2468C107.029 23.2468 108.124 22.9607 109.043 22.3886C109.236 22.2669 109.42 22.1349 109.595 21.9926V22.8483C109.595 24.0541 109.298 24.9534 108.706 25.546C108.113 26.1592 107.346 26.4657 106.407 26.4657C105.589 26.4657 104.915 26.292 104.383 25.9446C103.872 25.5971 103.361 25.0249 102.85 24.2278L99.6315 25.8832L99.8772 26.4044C100.347 27.324 100.929 28.0598 101.624 28.6115C102.319 29.1839 103.075 29.5824 103.893 29.8071ZM108.92 18.3727C108.328 19.0063 107.561 19.323 106.621 19.323C105.681 19.323 104.905 19.0063 104.291 18.3727C103.699 17.7392 103.402 16.9421 103.402 15.9816C103.402 14.9801 103.699 14.1626 104.291 13.5291C104.905 12.8955 105.681 12.5788 106.621 12.5788C107.561 12.5788 108.328 12.8955 108.92 13.5291C109.533 14.1626 109.84 14.9801 109.84 15.9816C109.84 16.9421 109.533 17.7392 108.92 18.3727Z" fill="#1F2A2E" fill-opacity="0.7"/>
<path fill-rule="evenodd" clip-rule="evenodd" d="M90.597 24.4118C89.0443 24.4118 87.6748 24.0848 86.4891 23.4308C85.3042 22.7564 84.3847 21.8265 83.7304 20.6411C83.0762 19.4558 82.749 18.0967 82.749 16.564C82.749 15.0108 83.0762 13.6415 83.7304 12.4562C84.3847 11.2708 85.3042 10.3512 86.4891 9.69723C87.6748 9.02277 89.0443 8.68555 90.597 8.68555C92.1708 8.68555 93.5506 9.02277 94.7355 9.69723C95.9211 10.3512 96.8407 11.2708 97.4949 12.4562C98.1688 13.6415 98.5061 15.0108 98.5061 16.564C98.5061 18.0967 98.1688 19.4558 97.4949 20.6411C96.8407 21.8265 95.9211 22.7564 94.7355 23.4308C93.5506 24.0848 92.1708 24.4118 90.597 24.4118ZM90.597 20.0587C91.5988 20.0587 92.4056 19.7419 93.0192 19.1084C93.6523 18.4545 93.9693 17.6063 93.9693 16.564C93.9693 15.5013 93.6523 14.6429 93.0192 13.9889C92.4056 13.3349 91.5988 13.008 90.597 13.008C89.6368 13.008 88.8393 13.3349 88.2062 13.9889C87.5926 14.6225 87.2866 15.4706 87.2866 16.5334C87.2866 17.5961 87.5926 18.4545 88.2062 19.1084C88.8393 19.7419 89.6368 20.0587 90.597 20.0587Z" fill="#1F2A2E" fill-opacity="0.7"/>
<path d="M69.7742 24.0433H82.4657V19.7209H74.2499V3.16699H69.7742V24.0433Z" fill="#1F2A2E" fill-opacity="0.7"/>
</g>
<defs>
<clipPath id="clip0_113_1403">
<rect width="207.391" height="36" fill="white" transform="translate(0.304321)"/>
</clipPath>
</defs>
</svg>
