<svg width="186" height="48" viewBox="0 0 186 48" fill="none" xmlns="http://www.w3.org/2000/svg">
<path d="M55.3049 15.1045H59.8049V33.2995H55.3049V15.1045ZM61.5899 26.4295C61.5899 21.9295 64.3499 19.2445 68.6099 19.2445C72.8699 19.2445 75.6299 21.9295 75.6299 26.4295C75.6299 30.9295 72.9299 33.6295 68.6099 33.6295C64.2899 33.6295 61.5899 31.0045 61.5899 26.4295ZM71.1149 26.4295C71.1149 23.9545 70.1399 22.4995 68.6099 22.4995C67.0799 22.4995 66.1199 23.9995 66.1199 26.4295C66.1199 28.8595 67.0649 30.3295 68.6099 30.3295C70.1549 30.3295 71.1149 28.9495 71.1149 26.4445V26.4295ZM77.3249 34.1845H81.6449C81.8506 34.6413 82.1981 35.0194 82.636 35.2627C83.0738 35.5059 83.5786 35.6013 84.0749 35.5345C85.7849 35.5345 86.6849 34.6045 86.6849 33.2545V30.7345H86.5949C86.2364 31.5069 85.6546 32.154 84.9247 32.5926C84.1948 33.031 83.3501 33.2407 82.4999 33.1945C79.2149 33.1945 77.0399 30.6895 77.0399 26.3845C77.0399 22.0795 79.1099 19.3645 82.5599 19.3645C83.4368 19.3302 84.3032 19.5646 85.0432 20.0364C85.7831 20.5083 86.3612 21.195 86.6999 22.0045V19.4995H91.1999V33.1495C91.1999 36.4345 88.3049 38.4745 84.0299 38.4745C80.0549 38.4745 77.5799 36.6895 77.3249 34.1995V34.1845ZM86.6999 26.4145C86.6999 24.2245 85.6949 22.8445 84.1049 22.8445C82.5149 22.8445 81.5399 24.2095 81.5399 26.4145C81.5399 28.6195 82.4999 29.8645 84.1049 29.8645C85.7099 29.8645 86.6999 28.6495 86.6999 26.4295V26.4145ZM92.8949 26.4145C92.8949 21.9145 95.6549 19.2295 99.9149 19.2295C104.175 19.2295 106.95 21.9145 106.95 26.4145C106.95 30.9145 104.25 33.6145 99.9149 33.6145C95.5799 33.6145 92.8949 31.0045 92.8949 26.4295V26.4145ZM102.42 26.4145C102.42 23.9395 101.445 22.4845 99.9149 22.4845C98.3849 22.4845 97.4999 23.9995 97.4999 26.4445C97.4999 28.8895 98.4449 30.3445 99.9749 30.3445C101.505 30.3445 102.42 28.9495 102.42 26.4445V26.4145ZM108.66 16.2295C108.648 15.7752 108.772 15.3276 109.014 14.9435C109.257 14.5593 109.609 14.2559 110.024 14.0718C110.44 13.8877 110.901 13.831 111.348 13.9091C111.796 13.9872 112.211 14.1965 112.539 14.5104C112.868 14.8243 113.096 15.2287 113.195 15.6724C113.293 16.1161 113.258 16.579 113.093 17.0026C112.928 17.4261 112.641 17.7912 112.268 18.0514C111.896 18.3117 111.454 18.4555 111 18.4645C110.699 18.4852 110.396 18.4434 110.112 18.3417C109.828 18.24 109.568 18.0807 109.348 17.8735C109.128 17.6665 108.954 17.4162 108.835 17.1384C108.717 16.8607 108.657 16.5615 108.66 16.2595V16.2295ZM108.66 19.5295H113.16V33.2995H108.66V19.5295ZM129.495 26.4145C129.495 30.9145 127.5 33.4795 124.08 33.4795C123.203 33.5358 122.33 33.3214 121.579 32.8654C120.827 32.4093 120.235 31.7335 119.88 30.9295H119.79V37.7095H115.29V19.4995H119.79V21.9595H119.88C120.218 21.1422 120.8 20.4489 121.546 19.9738C122.292 19.4988 123.166 19.2651 124.05 19.3045C127.5 19.3645 129.555 21.9445 129.555 26.4445L129.495 26.4145ZM124.995 26.4145C124.995 24.2245 123.99 22.8295 122.415 22.8295C120.84 22.8295 119.835 24.2395 119.82 26.4145C119.805 28.5895 120.84 29.9845 122.415 29.9845C123.99 29.9845 124.995 28.6195 124.995 26.4445V26.4145ZM137.22 19.2145C140.955 19.2145 143.22 20.9845 143.325 23.8195H139.23C139.23 22.8445 138.42 22.2295 137.175 22.2295C135.93 22.2295 135.375 22.7095 135.375 23.4145C135.375 24.1195 135.87 24.3445 136.875 24.5545L139.755 25.1395C142.5 25.7245 143.67 26.8345 143.67 28.9195C143.67 31.7695 141.075 33.5995 137.25 33.5995C133.425 33.5995 130.92 31.7695 130.725 28.9645H135.06C135.195 29.9845 136.005 30.5845 137.325 30.5845C138.645 30.5845 139.245 30.1495 139.245 29.4295C139.245 28.7095 138.825 28.5595 137.745 28.3345L135.15 27.7795C132.465 27.2245 131.055 25.7995 131.055 23.6995C131.085 20.9995 133.5 19.2445 137.22 19.2445V19.2145ZM158.685 33.2695H154.35V30.7045H154.26C154.021 31.5657 153.496 32.3194 152.77 32.8407C152.044 33.3618 151.162 33.619 150.27 33.5695C149.586 33.6084 148.902 33.5001 148.264 33.2518C147.626 33.0036 147.048 32.6214 146.57 32.1307C146.093 31.6402 145.726 31.0527 145.495 30.4081C145.263 29.7636 145.173 29.0769 145.23 28.3945V19.4995H149.73V27.3595C149.73 28.9945 150.57 29.8645 151.965 29.8645C152.292 29.8651 152.616 29.796 152.914 29.6614C153.211 29.5269 153.478 29.3301 153.694 29.0844C153.909 28.8385 154.071 28.5495 154.165 28.2366C154.26 27.9235 154.288 27.5938 154.245 27.2695V19.4995H158.745L158.685 33.2695ZM160.86 19.4995H165.21V22.1545H165.3C165.538 21.3048 166.053 20.5581 166.761 20.0316C167.469 19.5051 168.333 19.2282 169.215 19.2445C170.113 19.1727 171.004 19.4413 171.714 19.9972C172.422 20.5531 172.896 21.3553 173.04 22.2445H173.13C173.401 21.3459 173.965 20.5635 174.732 20.0203C175.497 19.4772 176.422 19.2042 177.36 19.2445C177.972 19.224 178.581 19.3324 179.148 19.5628C179.716 19.7931 180.228 20.1403 180.652 20.5816C181.077 21.0231 181.404 21.5488 181.612 22.1247C181.819 22.7005 181.905 23.3139 181.86 23.9245V33.2995H177.36V25.1245C177.36 23.6245 176.685 22.9345 175.425 22.9345C175.144 22.9321 174.865 22.99 174.609 23.1043C174.352 23.2186 174.123 23.3866 173.937 23.5971C173.751 23.8075 173.611 24.0553 173.529 24.324C173.446 24.5928 173.424 24.876 173.46 25.1545V33.2995H169.185V25.0645C169.185 23.6845 168.51 22.9345 167.28 22.9345C166.996 22.9347 166.714 22.995 166.456 23.1115C166.197 23.2282 165.964 23.3985 165.777 23.611C165.588 23.8236 165.447 24.0738 165.361 24.3451C165.277 24.6163 165.25 24.9024 165.285 25.1845V33.2995H160.785L160.86 19.4995Z" fill="#1F2A2E" fill-opacity="0.7"/>
<path d="M42.7199 15.9293C41.9565 14.1839 40.9463 12.5572 39.7199 11.0993C37.9071 8.87986 35.6448 7.06943 33.0819 5.78725C30.519 4.50508 27.7136 3.78021 24.8504 3.66034C21.9872 3.54048 19.131 4.02834 16.4699 5.09184C13.8089 6.15532 11.4032 7.77032 9.4112 9.83054C7.41923 11.8907 5.88615 14.3495 4.91288 17.0449C3.9396 19.7402 3.54818 22.6112 3.76439 25.4688C3.98061 28.3264 4.79954 31.1058 6.1673 33.624C7.53506 36.1423 9.42063 38.3423 11.6999 40.0793C13.1624 41.2162 14.7784 42.1403 16.4999 42.8243C18.9134 43.8134 21.4965 44.3228 24.1049 44.3243C29.489 44.3125 34.6487 42.1663 38.4531 38.3563C42.2574 34.5463 44.396 29.3834 44.3999 23.9993C44.4038 21.2221 43.8318 18.4742 42.7199 15.9293ZM24.0899 7.78434C26.4323 7.7841 28.7463 8.29605 30.8699 9.28434C30.3521 9.50809 29.8076 9.66437 29.2499 9.74935C27.4148 10.015 25.7148 10.867 24.4037 12.1781C23.0925 13.4892 22.2405 15.1892 21.9749 17.0243C21.8583 18.0535 21.3902 19.0109 20.6496 19.7351C19.9091 20.4593 18.9414 20.9057 17.9099 20.9993C16.0748 21.265 14.3748 22.117 13.0637 23.4281C11.7525 24.7393 10.9005 26.4393 10.6349 28.2743C10.545 29.253 10.1274 30.1726 9.44991 30.8843C8.28089 28.4143 7.75574 25.6885 7.92332 22.9609C8.0909 20.2333 8.94576 17.5924 10.4084 15.2839C11.871 12.9755 13.8938 11.0746 16.2885 9.75811C18.6833 8.4416 21.3722 7.75231 24.1049 7.75434L24.0899 7.78434ZM11.6849 34.4993C11.8649 34.3343 12.0449 34.1843 12.2249 34.0043C13.5594 32.7106 14.416 31.0027 14.6549 29.1593C14.7518 28.1231 15.2144 27.1553 15.9599 26.4293C16.6773 25.6826 17.6429 25.2238 18.6749 25.1393C20.51 24.8737 22.2099 24.0217 23.5211 22.7105C24.8322 21.3994 25.6842 19.6994 25.9499 17.8643C26.0148 16.7806 26.4798 15.7595 27.2549 14.9993C27.99 14.2671 28.9647 13.825 29.9999 13.7543C31.6857 13.5224 33.258 12.7729 34.4999 11.6093C35.9139 12.7825 37.1118 14.1937 38.0399 15.7793C37.9829 15.8563 37.9175 15.9268 37.8449 15.9893C37.1289 16.7426 36.1646 17.2115 35.1299 17.3093C33.2928 17.5703 31.5903 18.4208 30.2783 19.7327C28.9664 21.0448 28.1159 22.7473 27.8549 24.5843C27.7491 25.6169 27.2897 26.5813 26.5544 27.3139C25.8189 28.0466 24.8529 28.5025 23.8199 28.6043C21.9794 28.8679 20.2731 29.7183 18.9543 31.0288C17.6357 32.3395 16.7748 34.0405 16.4999 35.8793C16.4192 36.6124 16.1673 37.3163 15.7649 37.9343C14.2259 37.0205 12.8475 35.8601 11.6849 34.4993ZM24.0899 40.2893C22.5678 40.291 21.053 40.0789 19.5899 39.6593C20.0904 38.7263 20.4158 37.7095 20.5499 36.6594C20.655 35.629 21.1124 34.6664 21.8447 33.9341C22.577 33.2018 23.5395 32.7445 24.5699 32.6393C26.4077 32.3767 28.1111 31.526 29.4252 30.2146C30.7392 28.9033 31.5935 27.2015 31.8599 25.3643C31.965 24.334 32.4224 23.3714 33.1547 22.6391C33.887 21.9068 34.8495 21.4495 35.8799 21.3443C37.2629 21.1645 38.5811 20.6495 39.7199 19.8443C40.3523 22.2412 40.4271 24.751 39.9389 27.1813C39.4506 29.6116 38.412 31.8979 36.903 33.8645C35.394 35.831 33.4547 37.426 31.2335 38.5267C29.0124 39.6274 26.5688 40.2047 24.0899 40.2143V40.2893Z" fill="#1F2A2E" fill-opacity="0.7"/>
</svg>
