<svg width="192" height="32" viewBox="0 0 192 32" fill="none" xmlns="http://www.w3.org/2000/svg">
<g clip-path="url(#clip0_113_1371)">
<path d="M167.785 25.7024V9.77273H171.96V12.6082H172.16C172.492 11.6678 173.047 10.9268 173.826 10.3854C174.605 9.84399 175.532 9.57324 176.605 9.57324C177.698 9.57324 178.624 9.84875 179.383 10.3997C180.153 10.9411 180.666 11.6773 180.923 12.6082H181.093C181.417 11.6868 182.005 10.9506 182.86 10.3997C183.715 9.84875 184.722 9.57324 185.881 9.57324C187.362 9.57324 188.569 10.0435 189.5 10.9839C190.441 11.9242 190.91 13.2589 190.91 14.9876V25.7024H186.494V15.8711C186.494 14.9781 186.256 14.3132 185.781 13.8763C185.316 13.4393 184.731 13.2209 184.029 13.2209C183.23 13.2209 182.604 13.4773 182.148 13.9903C181.701 14.4937 181.478 15.1586 181.478 15.985V25.7024H177.204V15.757C177.204 14.9876 176.98 14.375 176.534 13.919C176.087 13.4536 175.504 13.2209 174.782 13.2209C174.288 13.2209 173.846 13.3443 173.456 13.5914C173.067 13.8383 172.758 14.1802 172.53 14.6172C172.302 15.0446 172.188 15.5576 172.188 16.156V25.7024H167.785Z" fill="#1F2A2E" fill-opacity="0.7"/>
<path d="M161.505 18.9342V9.77246H165.908V25.7021H161.676V22.8097H161.505C161.144 23.7312 160.55 24.4815 159.724 25.061C158.897 25.631 157.886 25.9112 156.689 25.9016C155.625 25.9016 154.685 25.6642 153.868 25.1892C153.06 24.7048 152.429 24.0161 151.973 23.1232C151.526 22.2303 151.303 21.1617 151.303 19.9173V9.77246H155.706V19.1479C155.706 20.0788 155.957 20.8197 156.461 21.3707C156.965 21.9121 157.634 22.1781 158.47 22.1686C159.002 22.1686 159.496 22.0498 159.952 21.8123C160.407 21.5654 160.778 21.1997 161.063 20.7152C161.357 20.2308 161.505 19.6371 161.505 18.9342Z" fill="#1F2A2E" fill-opacity="0.7"/>
<path d="M149.81 14.318L145.777 14.5602C145.673 14.0568 145.392 13.6246 144.937 13.2636C144.481 12.8931 143.868 12.7079 143.099 12.7079C142.415 12.7079 141.84 12.8504 141.374 13.1354C140.919 13.4203 140.691 13.8003 140.691 14.2752C140.691 14.6552 140.838 14.9829 141.132 15.2584C141.436 15.5244 141.954 15.7333 142.686 15.8853L145.578 16.4553C147.127 16.7687 148.28 17.2769 149.04 17.9798C149.801 18.6827 150.18 19.6089 150.18 20.7583C150.18 21.8126 149.876 22.7341 149.268 23.5224C148.66 24.3014 147.824 24.914 146.761 25.3605C145.697 25.7974 144.476 26.0159 143.099 26.0159C140.99 26.0159 139.308 25.5742 138.055 24.6908C136.81 23.8074 136.084 22.6105 135.875 21.1002L140.192 20.8722C140.335 21.5181 140.657 22.0073 141.161 22.3398C141.665 22.6722 142.31 22.8385 143.099 22.8385C143.868 22.8385 144.49 22.6865 144.965 22.3825C145.449 22.0786 145.692 21.6939 145.692 21.2284C145.692 20.4401 145.008 19.9081 143.64 19.6326L140.891 19.0627C139.342 18.7492 138.188 18.2125 137.428 17.4527C136.668 16.6927 136.288 15.719 136.288 14.5317C136.288 13.5058 136.568 12.6225 137.129 11.8815C137.689 11.1406 138.473 10.5706 139.479 10.1717C140.496 9.77273 141.684 9.57324 143.042 9.57324C145.055 9.57324 146.637 10.0007 147.786 10.8557C148.945 11.701 149.62 12.8551 149.81 14.318Z" fill="#1F2A2E" fill-opacity="0.7"/>
<path d="M119.877 31.6582V9.77273H124.208V12.4657H124.407C124.607 12.0287 124.892 11.5871 125.263 11.1406C125.633 10.6942 126.117 10.3237 126.716 10.0292C127.315 9.72528 128.055 9.57324 128.939 9.57324C130.107 9.57324 131.176 9.87724 132.144 10.4852C133.123 11.0836 133.907 11.9907 134.495 13.2066C135.084 14.4225 135.379 15.9423 135.379 17.7661C135.379 19.5329 135.094 21.0289 134.524 22.2543C133.954 23.4702 133.18 24.3916 132.201 25.0185C131.233 25.6454 130.14 25.9589 128.924 25.9589C128.069 25.9589 127.343 25.8164 126.744 25.5315C126.146 25.2465 125.657 24.8903 125.277 24.4628C124.906 24.0258 124.617 23.5889 124.407 23.152H124.279V31.6582H119.877ZM127.528 22.4538C128.25 22.4538 128.858 22.2543 129.352 21.8554C129.846 21.4564 130.221 20.9055 130.477 20.2025C130.734 19.4901 130.862 18.6733 130.862 17.7518C130.862 16.8305 130.734 16.023 130.477 15.3297C130.231 14.6267 129.86 14.0758 129.366 13.6768C128.872 13.2778 128.259 13.0784 127.528 13.0784C126.816 13.0784 126.208 13.2731 125.705 13.6625C125.211 14.0426 124.83 14.584 124.564 15.2869C124.308 15.9803 124.18 16.802 124.18 17.7518C124.18 18.6922 124.313 19.5139 124.578 20.2168C124.844 20.9197 125.225 21.4707 125.719 21.8696C126.222 22.2591 126.825 22.4538 127.528 22.4538Z" fill="#1F2A2E" fill-opacity="0.7"/>
<path d="M113.596 25.7023V9.77263H117.999V25.7023H113.596ZM115.79 7.73514C115.134 7.73514 114.574 7.51665 114.109 7.07971C113.644 6.64276 113.411 6.11557 113.411 5.49814C113.411 4.88071 113.644 4.35827 114.109 3.93081C114.574 3.49386 115.134 3.27539 115.79 3.27539C116.455 3.27539 117.02 3.49386 117.486 3.93081C117.951 4.35827 118.184 4.88071 118.184 5.49814C118.184 6.11557 117.951 6.64276 117.486 7.07971C117.02 7.51665 116.455 7.73514 115.79 7.73514Z" fill="#1F2A2E" fill-opacity="0.7"/>
<path d="M104.537 26.0159C102.932 26.0159 101.54 25.6739 100.362 24.99C99.1938 24.2966 98.2915 23.3372 97.6546 22.1119C97.0279 20.877 96.7149 19.4427 96.7149 17.8089C96.7149 16.156 97.0279 14.717 97.6546 13.4916C98.2915 12.2567 99.1938 11.2973 100.362 10.6134C101.54 9.92001 102.932 9.57324 104.537 9.57324C106.152 9.57324 107.543 9.92001 108.712 10.6134C109.89 11.2973 110.792 12.2567 111.419 13.4916C112.055 14.717 112.374 16.156 112.374 17.8089C112.374 19.4427 112.055 20.877 111.419 22.1119C110.792 23.3372 109.89 24.2966 108.712 24.99C107.543 25.6739 106.152 26.0159 104.537 26.0159ZM104.565 22.5678C105.297 22.5678 105.91 22.3636 106.403 21.9551C106.897 21.5372 107.268 20.9672 107.515 20.2453C107.771 19.5234 107.899 18.7017 107.899 17.7803C107.899 16.8494 107.771 16.0278 107.515 15.3154C107.268 14.6029 106.897 14.0425 106.403 13.634C105.91 13.2256 105.297 13.0214 104.565 13.0214C103.824 13.0214 103.202 13.2256 102.699 13.634C102.205 14.0425 101.829 14.6029 101.573 15.3154C101.326 16.0278 101.203 16.8494 101.203 17.7803C101.203 18.7017 101.326 19.5234 101.573 20.2453C101.829 20.9672 102.205 21.5372 102.699 21.9551C103.202 22.3636 103.824 22.5678 104.565 22.5678Z" fill="#1F2A2E" fill-opacity="0.7"/>
<path d="M87.7268 32.0002C85.5797 32.0002 83.8985 31.5728 82.6825 30.7178C81.4665 29.8725 80.7259 28.818 80.4597 27.5547L84.5354 27.0133C84.6587 27.3363 84.8531 27.6354 85.1192 27.911C85.3854 28.1864 85.7413 28.4049 86.1877 28.5663C86.6342 28.7373 87.1805 28.8228 87.8267 28.8228C88.786 28.8228 89.5789 28.5901 90.2057 28.1247C90.8332 27.6687 91.1461 26.8945 91.1461 25.8022V22.8813H90.9612C90.7707 23.3182 90.4812 23.7361 90.0917 24.1351C89.7022 24.5341 89.2035 24.8571 88.5955 25.104C87.9875 25.351 87.2609 25.4744 86.4156 25.4744C85.2191 25.4744 84.1311 25.199 83.1532 24.6481C82.1838 24.0877 81.4049 23.2327 80.8164 22.0834C80.2365 20.9339 79.9469 19.4807 79.9469 17.7233C79.9469 15.9091 80.2412 14.3988 80.8304 13.1924C81.4291 11.986 82.2174 11.0836 83.1953 10.4852C84.1741 9.87724 85.2472 9.57324 86.4156 9.57324C87.3085 9.57324 88.0546 9.72528 88.6525 10.0292C89.2605 10.3237 89.7545 10.6942 90.1346 11.1406C90.5147 11.5871 90.7996 12.0287 90.9893 12.4657H91.1602V9.77273H95.506V25.8734C95.506 27.2223 95.1735 28.3526 94.5093 29.2646C93.8443 30.1764 92.9272 30.8603 91.7588 31.3163C90.5904 31.7723 89.2464 32.0002 87.7268 32.0002ZM87.8119 22.1546C88.8757 22.1546 89.6976 21.7604 90.2775 20.972C90.866 20.1836 91.1602 19.0912 91.1602 17.6948C91.1602 16.764 91.0275 15.9565 90.7614 15.2726C90.5054 14.5792 90.13 14.0426 89.6359 13.6625C89.1419 13.2731 88.5339 13.0784 87.8119 13.0784C87.09 13.0784 86.4773 13.2778 85.9739 13.6768C85.4798 14.0663 85.1052 14.6077 84.8484 15.3011C84.5924 15.9946 84.4636 16.7924 84.4636 17.6948C84.4636 18.6068 84.5924 19.3999 84.8484 20.0743C85.1052 20.7393 85.4798 21.2522 85.9739 21.6131C86.4773 21.9741 87.09 22.1546 87.8119 22.1546Z" fill="#1F2A2E" fill-opacity="0.7"/>
<path d="M71.5433 26.0159C69.938 26.0159 68.5464 25.6739 67.3686 24.99C66.2002 24.2966 65.2978 23.3372 64.6614 22.1119C64.0345 20.877 63.721 19.4427 63.721 17.8089C63.721 16.156 64.0345 14.717 64.6614 13.4916C65.2978 12.2567 66.2002 11.2973 67.3686 10.6134C68.5464 9.92001 69.938 9.57324 71.5433 9.57324C73.1582 9.57324 74.5498 9.92001 75.7182 10.6134C76.896 11.2973 77.7984 12.2567 78.4254 13.4916C79.0619 14.717 79.3803 16.156 79.3803 17.8089C79.3803 19.4427 79.0619 20.877 78.4254 22.1119C77.7984 23.3372 76.896 24.2966 75.7182 24.99C74.5498 25.6739 73.1582 26.0159 71.5433 26.0159ZM71.5718 22.5678C72.3033 22.5678 72.916 22.3636 73.4099 21.9551C73.9038 21.5372 74.2743 20.9672 74.5213 20.2453C74.7778 19.5234 74.906 18.7017 74.906 17.7803C74.906 16.8494 74.7778 16.0278 74.5213 15.3154C74.2743 14.6029 73.9038 14.0425 73.4099 13.634C72.916 13.2256 72.3033 13.0214 71.5718 13.0214C70.831 13.0214 70.2088 13.2256 69.7053 13.634C69.2114 14.0425 68.8361 14.6029 68.5797 15.3154C68.3327 16.0278 68.2092 16.8494 68.2092 17.7803C68.2092 18.7017 68.3327 19.5234 68.5797 20.2453C68.8361 20.9672 69.2114 21.5372 69.7053 21.9551C70.2088 22.3636 70.831 22.5678 71.5718 22.5678Z" fill="#1F2A2E" fill-opacity="0.7"/>
<path d="M49.561 25.7017V4.47168H54.035V21.9972H63.1397V25.7017H49.561Z" fill="#1F2A2E" fill-opacity="0.7"/>
<path d="M29.5764 31.2195C34.5971 31.1172 38.6341 27.0106 38.6341 21.9621C38.6341 19.5068 37.6595 17.1522 35.9244 15.416L20.5186 0V9.58213C20.5186 11.1846 21.1548 12.7216 22.2873 13.8548L25.8962 17.4661L25.906 17.4757L31.9572 23.5309C32.1538 23.7275 32.1538 24.0464 31.9572 24.243C31.7608 24.4396 31.4421 24.4396 31.2457 24.243L29.1598 22.1558H9.86458L7.77877 24.243C7.58225 24.4396 7.26364 24.4396 7.06713 24.243C6.87061 24.0464 6.87061 23.7275 7.06712 23.5309L13.1184 17.4757L13.1282 17.4661L16.7371 13.8548C17.8696 12.7216 18.5058 11.1846 18.5058 9.58213V0L3.0999 15.416C1.36493 17.1522 0.390244 19.5068 0.390244 21.9621C0.390244 27.0106 4.42733 31.1172 9.44804 31.2195H29.5764Z" fill="#1F2A2E" fill-opacity="0.7"/>
</g>
<defs>
<clipPath id="clip0_113_1371">
<rect width="191.22" height="32" fill="white" transform="translate(0.390244)"/>
</clipPath>
</defs>
</svg>
