<svg width="192" height="32" viewBox="0 0 192 32" fill="none" xmlns="http://www.w3.org/2000/svg">
<g clip-path="url(#clip0_2_5)">
<path d="M167.785 25.7023V9.77266H171.96V12.6081H172.16C172.492 11.6677 173.047 10.9268 173.826 10.3853C174.605 9.84392 175.532 9.57317 176.605 9.57317C177.698 9.57317 178.624 9.84868 179.383 10.3996C180.153 10.9411 180.666 11.6772 180.923 12.6081H181.093C181.417 11.6867 182.005 10.9506 182.86 10.3996C183.715 9.84868 184.722 9.57317 185.881 9.57317C187.362 9.57317 188.569 10.0434 189.5 10.9838C190.441 11.9242 190.91 13.2588 190.91 14.9876V25.7023H186.494V15.871C186.494 14.978 186.256 14.3132 185.781 13.8762C185.316 13.4392 184.731 13.2208 184.029 13.2208C183.23 13.2208 182.604 13.4772 182.148 13.9902C181.701 14.4937 181.478 15.1586 181.478 15.985V25.7023H177.204V15.757C177.204 14.9876 176.98 14.3749 176.534 13.9189C176.087 13.4535 175.504 13.2208 174.782 13.2208C174.288 13.2208 173.846 13.3443 173.456 13.5913C173.067 13.8382 172.758 14.1802 172.53 14.6172C172.302 15.0445 172.188 15.5575 172.188 16.156V25.7023H167.785Z" fill="white" fill-opacity="0.7"/>
<path d="M161.505 18.9346V9.77287H165.908V25.7025H161.676V22.8101H161.505C161.144 23.7316 160.55 24.4819 159.724 25.0614C158.897 25.6314 157.886 25.9116 156.689 25.902C155.625 25.902 154.685 25.6646 153.868 25.1896C153.06 24.7052 152.428 24.0165 151.973 23.1236C151.526 22.2307 151.303 21.1621 151.303 19.9177V9.77287H155.706V19.1483C155.706 20.0792 155.957 20.8201 156.461 21.3711C156.965 21.9125 157.634 22.1785 158.47 22.169C159.002 22.169 159.496 22.0503 159.952 21.8127C160.407 21.5658 160.778 21.2001 161.063 20.7156C161.357 20.2312 161.505 19.6375 161.505 18.9346Z" fill="white" fill-opacity="0.7"/>
<path d="M149.81 14.3179L145.777 14.5601C145.673 14.0567 145.392 13.6245 144.937 13.2636C144.481 12.8931 143.868 12.7078 143.099 12.7078C142.415 12.7078 141.84 12.8504 141.374 13.1353C140.919 13.4203 140.691 13.8002 140.691 14.2751C140.691 14.6552 140.838 14.9828 141.132 15.2583C141.436 15.5243 141.954 15.7332 142.686 15.8852L145.578 16.4552C147.127 16.7686 148.28 17.2768 149.04 17.9797C149.801 18.6826 150.18 19.6088 150.18 20.7582C150.18 21.8125 149.876 22.734 149.268 23.5224C148.66 24.3013 147.824 24.914 146.761 25.3604C145.697 25.7973 144.476 26.0159 143.099 26.0159C140.99 26.0159 139.308 25.5741 138.055 24.6907C136.81 23.8073 136.084 22.6104 135.875 21.1001L140.192 20.8721C140.335 21.5181 140.657 22.0073 141.161 22.3398C141.665 22.6722 142.31 22.8384 143.099 22.8384C143.868 22.8384 144.49 22.6865 144.965 22.3825C145.449 22.0785 145.692 21.6938 145.692 21.2284C145.692 20.44 145.008 19.908 143.64 19.6326L140.891 19.0627C139.342 18.7491 138.188 18.2125 137.428 17.4526C136.668 16.6926 136.288 15.719 136.288 14.5316C136.288 13.5057 136.568 12.6224 137.129 11.8815C137.689 11.1405 138.473 10.5706 139.479 10.1716C140.496 9.77266 141.684 9.57317 143.042 9.57317C145.055 9.57317 146.637 10.0006 147.786 10.8556C148.945 11.7009 149.62 12.855 149.81 14.3179Z" fill="white" fill-opacity="0.7"/>
<path d="M119.877 31.6582V9.77266H124.208V12.4657H124.407C124.607 12.0287 124.892 11.587 125.263 11.1405C125.633 10.6941 126.117 10.3236 126.716 10.0291C127.315 9.72521 128.055 9.57317 128.939 9.57317C130.107 9.57317 131.176 9.87717 132.144 10.4851C133.123 11.0835 133.907 11.9907 134.495 13.2066C135.084 14.4224 135.379 15.9423 135.379 17.766C135.379 19.5328 135.094 21.0289 134.524 22.2542C133.954 23.4701 133.18 24.3915 132.201 25.0185C131.233 25.6454 130.14 25.9588 128.924 25.9588C128.069 25.9588 127.343 25.8164 126.744 25.5314C126.146 25.2464 125.657 24.8902 125.277 24.4628C124.906 24.0258 124.617 23.5889 124.407 23.1519H124.279V31.6582H119.877ZM127.528 22.4537C128.25 22.4537 128.858 22.2542 129.352 21.8553C129.846 21.4563 130.221 20.9054 130.477 20.2025C130.734 19.49 130.862 18.6732 130.862 17.7517C130.862 16.8304 130.734 16.023 130.477 15.3296C130.231 14.6266 129.86 14.0757 129.366 13.6767C128.872 13.2778 128.259 13.0783 127.528 13.0783C126.816 13.0783 126.208 13.273 125.705 13.6625C125.211 14.0425 124.83 14.5839 124.564 15.2868C124.308 15.9802 124.18 16.8019 124.18 17.7517C124.18 18.6922 124.313 19.5139 124.578 20.2168C124.844 20.9197 125.225 21.4706 125.719 21.8695C126.222 22.259 126.825 22.4537 127.528 22.4537Z" fill="white" fill-opacity="0.7"/>
<path d="M113.596 25.7021V9.77239H117.999V25.7021H113.596ZM115.79 7.7349C115.134 7.7349 114.574 7.51642 114.109 7.07947C113.644 6.64252 113.411 6.11533 113.411 5.49791C113.411 4.88047 113.644 4.35803 114.109 3.93058C114.574 3.49363 115.134 3.27515 115.79 3.27515C116.455 3.27515 117.02 3.49363 117.486 3.93058C117.951 4.35803 118.184 4.88047 118.184 5.49791C118.184 6.11533 117.951 6.64252 117.486 7.07947C117.02 7.51642 116.455 7.7349 115.79 7.7349Z" fill="white" fill-opacity="0.7"/>
<path d="M104.537 26.0159C102.932 26.0159 101.54 25.6739 100.362 24.9899C99.1938 24.2965 98.2915 23.3371 97.6546 22.1118C97.0279 20.8769 96.7149 19.4426 96.7149 17.8088C96.7149 16.156 97.0279 14.7169 97.6546 13.4915C98.2915 12.2566 99.1938 11.2973 100.362 10.6133C101.54 9.91994 102.932 9.57317 104.537 9.57317C106.152 9.57317 107.543 9.91994 108.712 10.6133C109.89 11.2973 110.792 12.2566 111.419 13.4915C112.055 14.7169 112.374 16.156 112.374 17.8088C112.374 19.4426 112.055 20.8769 111.419 22.1118C110.792 23.3371 109.89 24.2965 108.712 24.9899C107.543 25.6739 106.152 26.0159 104.537 26.0159ZM104.565 22.5677C105.297 22.5677 105.91 22.3635 106.403 21.9551C106.897 21.5371 107.268 20.9671 107.515 20.2452C107.771 19.5233 107.899 18.7017 107.899 17.7802C107.899 16.8493 107.771 16.0277 107.515 15.3153C107.268 14.6029 106.897 14.0425 106.403 13.634C105.91 13.2255 105.297 13.0213 104.565 13.0213C103.824 13.0213 103.202 13.2255 102.699 13.634C102.205 14.0425 101.829 14.6029 101.573 15.3153C101.326 16.0277 101.203 16.8493 101.203 17.7802C101.203 18.7017 101.326 19.5233 101.573 20.2452C101.829 20.9671 102.205 21.5371 102.699 21.9551C103.202 22.3635 103.824 22.5677 104.565 22.5677Z" fill="white" fill-opacity="0.7"/>
<path d="M87.7268 32.0002C85.5797 32.0002 83.8985 31.5727 82.6825 30.7178C81.4665 29.8724 80.7259 28.818 80.4597 27.5547L84.5354 27.0132C84.6587 27.3362 84.8531 27.6354 85.1192 27.9109C85.3854 28.1863 85.7413 28.4048 86.1877 28.5663C86.6342 28.7373 87.1805 28.8227 87.8267 28.8227C88.786 28.8227 89.5789 28.5901 90.2057 28.1246C90.8332 27.6686 91.1461 26.8945 91.1461 25.8021V22.8812H90.9612C90.7707 23.3181 90.4812 23.7361 90.0917 24.135C89.7022 24.534 89.2035 24.857 88.5955 25.1039C87.9875 25.3509 87.2609 25.4744 86.4156 25.4744C85.2191 25.4744 84.1311 25.1989 83.1532 24.648C82.1838 24.0876 81.4049 23.2326 80.8164 22.0833C80.2365 20.9339 79.9469 19.4806 79.9469 17.7233C79.9469 15.909 80.2412 14.3987 80.8304 13.1923C81.4291 11.9859 82.2174 11.0835 83.1953 10.4851C84.1741 9.87717 85.2472 9.57317 86.4156 9.57317C87.3085 9.57317 88.0546 9.72521 88.6525 10.0291C89.2605 10.3236 89.7545 10.6941 90.1346 11.1405C90.5147 11.587 90.7996 12.0287 90.9893 12.4657H91.1602V9.77266H95.506V25.8733C95.506 27.2222 95.1735 28.3526 94.5093 29.2645C93.8443 30.1763 92.9272 30.8603 91.7588 31.3162C90.5904 31.7722 89.2464 32.0002 87.7268 32.0002ZM87.8119 22.1546C88.8757 22.1546 89.6976 21.7603 90.2775 20.9719C90.866 20.1835 91.1602 19.0911 91.1602 17.6948C91.1602 16.7639 91.0275 15.9565 90.7614 15.2725C90.5054 14.5791 90.13 14.0425 89.6359 13.6625C89.1419 13.273 88.5339 13.0783 87.8119 13.0783C87.09 13.0783 86.4773 13.2778 85.9739 13.6767C85.4798 14.0662 85.1052 14.6076 84.8484 15.301C84.5924 15.9945 84.4636 16.7924 84.4636 17.6948C84.4636 18.6067 84.5924 19.3998 84.8484 20.0742C85.1052 20.7392 85.4798 21.2522 85.9739 21.6131C86.4773 21.974 87.09 22.1546 87.8119 22.1546Z" fill="white" fill-opacity="0.7"/>
<path d="M71.5433 26.0159C69.938 26.0159 68.5464 25.6739 67.3686 24.9899C66.2002 24.2965 65.2978 23.3371 64.6614 22.1118C64.0345 20.8769 63.721 19.4426 63.721 17.8088C63.721 16.156 64.0345 14.7169 64.6614 13.4915C65.2978 12.2566 66.2002 11.2973 67.3686 10.6133C68.5464 9.91994 69.938 9.57317 71.5433 9.57317C73.1582 9.57317 74.5498 9.91994 75.7182 10.6133C76.896 11.2973 77.7984 12.2566 78.4254 13.4915C79.0619 14.7169 79.3803 16.156 79.3803 17.8088C79.3803 19.4426 79.0619 20.8769 78.4254 22.1118C77.7984 23.3371 76.896 24.2965 75.7182 24.9899C74.5498 25.6739 73.1582 26.0159 71.5433 26.0159ZM71.5718 22.5677C72.3033 22.5677 72.916 22.3635 73.4099 21.9551C73.9038 21.5371 74.2743 20.9671 74.5213 20.2452C74.7778 19.5233 74.906 18.7017 74.906 17.7802C74.906 16.8493 74.7778 16.0277 74.5213 15.3153C74.2743 14.6029 73.9038 14.0425 73.4099 13.634C72.916 13.2255 72.3033 13.0213 71.5718 13.0213C70.831 13.0213 70.2088 13.2255 69.7053 13.634C69.2114 14.0425 68.8361 14.6029 68.5797 15.3153C68.3327 16.0277 68.2092 16.8493 68.2092 17.7802C68.2092 18.7017 68.3327 19.5233 68.5797 20.2452C68.8361 20.9671 69.2114 21.5371 69.7053 21.9551C70.2088 22.3635 70.831 22.5677 71.5718 22.5677Z" fill="white" fill-opacity="0.7"/>
<path d="M49.561 25.7019V4.4718H54.035V21.9973H63.1397V25.7019H49.561Z" fill="white" fill-opacity="0.7"/>
<path d="M29.5764 31.2195C34.5971 31.1172 38.6341 27.0106 38.6341 21.9621C38.6341 19.5068 37.6595 17.1522 35.9244 15.416L20.5186 0V9.58213C20.5186 11.1846 21.1548 12.7216 22.2873 13.8548L25.8962 17.4661L25.906 17.4757L31.9572 23.5309C32.1538 23.7275 32.1538 24.0464 31.9572 24.243C31.7608 24.4396 31.4421 24.4396 31.2457 24.243L29.1598 22.1558H9.86459L7.77877 24.243C7.58225 24.4396 7.26364 24.4396 7.06713 24.243C6.87061 24.0464 6.87061 23.7275 7.06712 23.5309L13.1184 17.4757L13.1282 17.4661L16.7371 13.8548C17.8696 12.7216 18.5058 11.1846 18.5058 9.58213V0L3.0999 15.416C1.36493 17.1522 0.390244 19.5068 0.390244 21.9621C0.390244 27.0106 4.42733 31.1172 9.44804 31.2195H29.5764Z" fill="white" fill-opacity="0.7"/>
</g>
<defs>
<clipPath id="clip0_2_5">
<rect width="191.22" height="32" fill="white" transform="translate(0.390244)"/>
</clipPath>
</defs>
</svg>
