<svg width="150" height="40" viewBox="0 0 150 40" fill="none" xmlns="http://www.w3.org/2000/svg">
<g clip-path="url(#clip0_113_1383)">
<path fill-rule="evenodd" clip-rule="evenodd" d="M0.443878 4.40336L3.06158 3.26389C12.7929 -0.972079 23.8471 -0.972079 33.5784 3.26389L36.1961 4.40336V22.0114C36.1961 31.8841 28.1927 39.8876 18.32 39.8876C8.44727 39.8876 0.443878 31.8841 0.443878 22.0114V4.40336ZM6.10759 8.12715V15.8328C6.71159 15.6866 7.30473 15.4935 7.88147 15.2545C9.34168 14.6497 10.6684 13.7632 11.786 12.6456C12.9036 11.528 13.7901 10.2012 14.395 8.74103C14.773 7.82846 15.0364 6.8749 15.1807 5.90223C12.0914 6.20131 9.03471 6.94297 6.10759 8.12715ZM6.10862 22.1726C6.71227 22.3188 7.30504 22.5118 7.88147 22.7505C9.34168 23.3554 10.6684 24.2419 11.786 25.3595C12.9036 26.4771 13.7901 27.8039 14.395 29.2641C14.9974 30.7183 15.3086 32.2765 15.3111 33.8503C10.0713 32.5227 6.1815 27.8079 6.10862 22.1726ZM18.143 24.2665C17.4657 23.218 16.6778 22.2415 15.7909 21.3547C14.904 20.4678 13.9276 19.6798 12.879 19.0025C13.9276 18.3253 14.904 17.5373 15.7909 16.6504C16.6778 15.7636 17.4657 14.7871 18.143 13.7386C18.8203 14.7871 19.6082 15.7636 20.4951 16.6504C21.382 17.5373 22.3584 18.3253 23.407 19.0025C22.3584 19.6798 21.382 20.4678 20.4951 21.3547C19.6082 22.2415 18.8203 23.218 18.143 24.2665ZM20.9748 33.9344C26.4177 32.7278 30.4945 27.8895 30.5321 22.0923C29.8058 22.2451 29.0935 22.4652 28.4045 22.7505C26.9443 23.3554 25.6175 24.2419 24.5 25.3595C23.3824 26.4771 22.4958 27.8039 21.891 29.2641C21.2861 30.7242 20.9748 32.2893 20.9748 33.8698V33.9344ZM28.4045 15.2545C29.0936 15.54 29.806 15.76 30.5324 15.9128V8.12715C27.492 6.89713 24.3118 6.14457 21.1004 5.86949C21.2437 6.85352 21.5087 7.81823 21.891 8.74103C22.4958 10.2012 23.3824 11.528 24.5 12.6456C25.6175 13.7632 26.9443 14.6497 28.4045 15.2545Z" fill="#1F2A2E" fill-opacity="0.7"/>
<path fill-rule="evenodd" clip-rule="evenodd" d="M78.7264 36.374C77.8768 36.374 77.1122 36.1701 76.4326 35.7623C75.7529 35.343 75.2149 34.7766 74.8184 34.063C74.4333 33.3381 74.2407 32.5225 74.2407 31.6163C74.2407 30.6988 74.4333 29.8832 74.8184 29.1696C75.2149 28.4559 75.7473 27.8952 76.4156 27.4874C77.0952 27.0683 77.8655 26.8588 78.7264 26.8588C79.508 26.8588 80.2046 27.0287 80.8163 27.3685C81.3172 27.6467 81.7306 28.0046 82.0567 28.4422V23.3076H83.331V36.1701H82.0567V34.6859C81.7515 35.1683 81.3437 35.5555 80.8333 35.8472C80.2103 36.1984 79.508 36.374 78.7264 36.374ZM78.7944 35.0995C79.406 35.0995 79.9554 34.9466 80.4425 34.6407C80.9409 34.3349 81.3317 33.9214 81.6149 33.4004C81.9094 32.868 82.0567 32.2733 82.0567 31.6163C82.0567 30.9593 81.9094 30.3703 81.6149 29.8492C81.3317 29.3168 80.9409 28.8977 80.4425 28.5919C79.9554 28.286 79.406 28.1331 78.7944 28.1331C78.194 28.1331 77.6503 28.286 77.1632 28.5919C76.6761 28.8977 76.291 29.3112 76.0078 29.8322C75.7359 30.3533 75.6 30.948 75.6 31.6163C75.6 32.2733 75.7359 32.868 76.0078 33.4004C76.291 33.9214 76.6705 34.3349 77.1462 34.6407C77.6333 34.9466 78.1827 35.0995 78.7944 35.0995Z" fill="#1F2A2E" fill-opacity="0.7"/>
<path fill-rule="evenodd" clip-rule="evenodd" d="M87.2729 35.7629C87.9639 36.1707 88.7342 36.3746 89.5837 36.3746C90.2067 36.3746 90.7731 36.2726 91.2828 36.0687C91.8039 35.8535 92.2513 35.576 92.6251 35.236C92.9989 34.8849 93.2765 34.5054 93.4577 34.0976L92.3703 33.5199C92.0871 33.9957 91.719 34.3921 91.2659 34.7093C90.8128 35.0265 90.2521 35.185 89.5837 35.185C89.006 35.185 88.4623 35.0378 87.9526 34.7433C87.4542 34.4488 87.0577 34.0353 86.7632 33.5029C86.5345 33.0637 86.4167 32.5653 86.4096 32.0077H93.5767C93.5993 31.8604 93.6163 31.7188 93.6276 31.5829C93.6389 31.4357 93.6446 31.3054 93.6446 31.1921C93.6446 30.6484 93.5483 30.1217 93.3558 29.6119C93.1632 29.0909 92.8857 28.6265 92.5232 28.2187C92.1607 27.7996 91.719 27.4711 91.1979 27.2332C90.6882 26.984 90.1048 26.8594 89.4478 26.8594C88.6209 26.8594 87.8733 27.0633 87.205 27.4711C86.548 27.8788 86.0269 28.4396 85.6418 29.1532C85.2567 29.8555 85.0641 30.6654 85.0641 31.5829C85.0641 32.5004 85.2623 33.3217 85.6588 34.0466C86.0552 34.7716 86.5933 35.3436 87.2729 35.7629ZM86.4298 30.8183C86.4719 30.4166 86.5774 30.0541 86.7462 29.7309C87.0181 29.1985 87.3919 28.785 87.8676 28.4905C88.3547 28.196 88.8814 28.0488 89.4478 28.0488C90.0142 28.0488 90.5239 28.196 90.977 28.4905C91.4301 28.7737 91.7756 29.1645 92.0135 29.6629C92.1926 30.013 92.2807 30.3981 92.2786 30.8183H86.4298Z" fill="#1F2A2E" fill-opacity="0.7"/>
<path d="M95.3816 27.0633H96.6559V28.1727C96.8881 27.8142 97.1883 27.5237 97.5565 27.3011C98.0549 27.0066 98.5986 26.8594 99.1876 26.8594C99.8899 26.8594 100.524 27.0576 101.091 27.4541C101.528 27.7605 101.868 28.1381 102.11 28.5867C102.343 28.0933 102.677 27.7044 103.113 27.4201C103.679 27.0463 104.302 26.8594 104.982 26.8594C105.593 26.8594 106.154 27.0066 106.664 27.3011C107.185 27.5957 107.598 28.0034 107.904 28.5245C108.221 29.0342 108.38 29.6119 108.38 30.2576V36.1707H107.105V30.7503C107.105 30.1953 107.004 29.7252 106.8 29.3401C106.607 28.9549 106.341 28.6604 106.001 28.4565C105.661 28.2413 105.27 28.1337 104.829 28.1337C104.398 28.1337 104.007 28.2413 103.656 28.4565C103.305 28.6604 103.028 28.9606 102.824 29.3571C102.62 29.7422 102.518 30.2066 102.518 30.7503V36.1707H101.244V30.7503C101.244 30.1953 101.142 29.7252 100.938 29.3401C100.745 28.9549 100.479 28.6604 100.139 28.4565C99.7993 28.2413 99.4085 28.1337 98.9667 28.1337C98.525 28.1337 98.1285 28.2413 97.7773 28.4565C97.4375 28.6604 97.1657 28.9606 96.9618 29.3571C96.7579 29.7422 96.6559 30.2066 96.6559 30.7503V36.1707H95.3816V27.0633Z" fill="#1F2A2E" fill-opacity="0.7"/>
<path d="M110.324 39.9089C110.143 39.9089 109.956 39.8919 109.764 39.858C109.582 39.8353 109.401 39.79 109.22 39.722V38.5326C109.333 38.544 109.475 38.561 109.645 38.5836C109.826 38.6176 110.007 38.6346 110.188 38.6346C110.743 38.6346 111.168 38.5157 111.463 38.2778C111.757 38.0512 112.046 37.6095 112.329 36.9525L112.658 36.1776L109.016 27.0635H110.392L113.374 34.5812L116.339 27.0635H117.749L113.587 37.3263C113.405 37.768 113.173 38.1872 112.89 38.5836C112.618 38.9801 112.273 39.2972 111.853 39.5351C111.434 39.7843 110.925 39.9089 110.324 39.9089Z" fill="#1F2A2E" fill-opacity="0.7"/>
<path fill-rule="evenodd" clip-rule="evenodd" d="M66.4882 36.0517C66.9413 36.2669 67.4567 36.3746 68.0347 36.3746C68.5671 36.3746 69.0542 36.2953 69.4956 36.1367C69.9487 35.9668 70.3395 35.7459 70.668 35.474C70.8956 35.2843 71.0825 35.082 71.2287 34.867V36.1707H72.5034V29.9178C72.5034 29.3174 72.3561 28.7907 72.0613 28.3376C71.7781 27.8732 71.376 27.5107 70.8552 27.2502C70.3452 26.9896 69.7565 26.8594 69.0878 26.8594C68.5784 26.8594 68.0853 26.9557 67.6096 27.1482C67.1338 27.3295 66.7091 27.5787 66.3352 27.8958C65.9731 28.213 65.7066 28.5642 65.5367 28.9493L66.6924 29.578C66.896 29.1362 67.2075 28.7794 67.6269 28.5075C68.0457 28.2243 68.5328 28.0827 69.0878 28.0827C69.7222 28.0827 70.2379 28.2526 70.6344 28.5925C71.0305 28.9323 71.2287 29.3741 71.2287 29.9178V30.3879L67.9324 30.9373C67.2641 31.0505 66.7147 31.2431 66.2846 31.515C65.8538 31.7868 65.5367 32.121 65.3328 32.5174C65.1292 32.9026 65.0273 33.333 65.0273 33.8088C65.0273 34.3072 65.1572 34.7489 65.4177 35.1341C65.6786 35.5193 66.0351 35.8252 66.4882 36.0517ZM71.2287 31.5433V32.2286C71.2287 32.7836 71.0988 33.2877 70.8379 33.7408C70.5774 34.1939 70.2149 34.5564 69.7508 34.8282C69.2864 35.0888 68.7427 35.219 68.1193 35.219C67.6096 35.219 67.1905 35.0774 66.862 34.7942C66.5452 34.5111 66.3866 34.1656 66.3866 33.7578C66.3866 33.3387 66.5282 32.9762 66.811 32.6703C67.1055 32.3645 67.5813 32.155 68.2383 32.0417L71.2287 31.5433Z" fill="#1F2A2E" fill-opacity="0.7"/>
<path d="M60.0514 36.3746C59.1565 36.3746 58.3692 36.165 57.6896 35.7459C57.0099 35.3266 56.4775 34.7603 56.0924 34.0466C55.7073 33.3217 55.5147 32.5061 55.5147 31.5999C55.5147 30.6937 55.7073 29.8838 56.0924 29.1702C56.4775 28.4565 57.0099 27.8958 57.6896 27.488C58.3692 27.0689 59.1565 26.8594 60.0514 26.8594C60.6177 26.8594 61.1501 26.9613 61.6485 27.1652C62.1469 27.3691 62.5887 27.6466 62.9738 27.9978C63.359 28.3376 63.6478 28.7341 63.8404 29.1872L62.685 29.7819C62.4584 29.2948 62.1129 28.8983 61.6485 28.5925C61.1841 28.2866 60.6517 28.1337 60.0514 28.1337C59.451 28.1337 58.9073 28.2866 58.4202 28.5925C57.9444 28.887 57.565 29.3004 57.2818 29.8328C57.0099 30.3539 56.874 30.9486 56.874 31.6169C56.874 32.2739 57.0099 32.8686 57.2818 33.401C57.565 33.922 57.9444 34.3355 58.4202 34.6413C58.9073 34.9472 59.451 35.1001 60.0514 35.1001C60.6517 35.1001 61.1784 34.9472 61.6315 34.6413C62.0959 34.3355 62.4471 33.9277 62.685 33.418L63.8404 34.0466C63.6478 34.4884 63.359 34.8849 62.9738 35.236C62.5887 35.5873 62.1469 35.8648 61.6485 36.0687C61.1501 36.2726 60.6177 36.3746 60.0514 36.3746Z" fill="#1F2A2E" fill-opacity="0.7"/>
<path fill-rule="evenodd" clip-rule="evenodd" d="M49.1462 23.5127L44.5246 36.1712H45.9519L47.0563 33.0787H52.7143L53.8018 36.1712H55.229L50.6074 23.5127H49.1462ZM52.2386 31.8044H47.4981L49.8761 25.1082L52.2386 31.8044Z" fill="#1F2A2E" fill-opacity="0.7"/>
<path d="M45.6761 3.00879V18.1178H55.2081V15.3799H48.8194V3.00879H45.6761Z" fill="#1F2A2E" fill-opacity="0.7"/>
<path d="M93.6811 18.1171H96.7232V7.04395H93.6811V18.1171Z" fill="#1F2A2E" fill-opacity="0.7"/>
<path d="M93.6811 3.00879V6.05088H96.7232V3.00879H93.6811Z" fill="#1F2A2E" fill-opacity="0.7"/>
<path fill-rule="evenodd" clip-rule="evenodd" d="M98.3409 22.1734V7.04414H101.18V8.19289C101.508 7.80683 101.914 7.49827 102.397 7.26722C103.032 6.95625 103.756 6.80078 104.567 6.80078C105.622 6.80078 106.575 7.05767 107.427 7.57144C108.278 8.08521 108.954 8.78149 109.455 9.66032C109.955 10.5256 110.205 11.4991 110.205 12.5807C110.205 13.6488 109.955 14.6223 109.455 15.5011C108.968 16.3799 108.298 17.0762 107.447 17.59C106.595 18.1038 105.628 18.3606 104.547 18.3606C103.789 18.3606 103.086 18.2255 102.438 17.955C102.038 17.7765 101.686 17.5471 101.383 17.2669V22.1734H98.3409ZM104.182 15.6228C104.749 15.6228 105.25 15.4943 105.682 15.2375C106.115 14.9806 106.453 14.6223 106.696 14.1626C106.94 13.7029 107.061 13.1756 107.061 12.5807C107.061 11.9858 106.94 11.4653 106.696 11.0191C106.453 10.5594 106.115 10.2011 105.682 9.94425C105.25 9.67384 104.749 9.53862 104.182 9.53862C103.641 9.53862 103.154 9.66708 102.721 9.92397C102.302 10.1809 101.971 10.5391 101.728 10.9988C101.498 11.4585 101.383 11.9858 101.383 12.5807C101.383 13.1756 101.498 13.7029 101.728 14.1626C101.971 14.6223 102.302 14.9806 102.721 15.2375C103.154 15.4943 103.641 15.6228 104.182 15.6228Z" fill="#1F2A2E" fill-opacity="0.7"/>
<path d="M112.534 17.5089C113.44 18.0767 114.501 18.3606 115.718 18.3606C116.583 18.3606 117.334 18.2187 117.969 17.9348C118.605 17.6373 119.098 17.2317 119.45 16.718C119.815 16.2041 119.998 15.6025 119.998 14.913C119.998 14.1153 119.754 13.446 119.267 12.9052C118.781 12.3509 118.078 11.9385 117.158 11.6681L115.394 11.1408C115.123 11.0597 114.893 10.9718 114.704 10.8771C114.529 10.7825 114.4 10.6743 114.319 10.5527C114.238 10.431 114.197 10.2958 114.197 10.147C114.197 9.86312 114.305 9.64004 114.522 9.47781C114.752 9.31554 115.062 9.23445 115.455 9.23445C115.995 9.23445 116.475 9.37639 116.895 9.66032C117.327 9.93073 117.624 10.2958 117.787 10.7555L120.038 9.70089C119.7 8.78149 119.119 8.07168 118.294 7.57144C117.482 7.05767 116.536 6.80078 115.455 6.80078C114.63 6.80078 113.9 6.94949 113.264 7.24694C112.629 7.53087 112.135 7.9297 111.784 8.44347C111.432 8.95728 111.257 9.55891 111.257 10.2485C111.257 11.0326 111.5 11.7154 111.987 12.2968C112.473 12.8646 113.17 13.277 114.075 13.5339L115.961 14.0612C116.205 14.1288 116.408 14.2099 116.57 14.3045C116.732 14.3992 116.854 14.5074 116.935 14.629C117.016 14.7372 117.057 14.8724 117.057 15.0347C117.057 15.3456 116.942 15.589 116.712 15.7647C116.482 15.9405 116.151 16.0284 115.718 16.0284C115.123 16.0284 114.583 15.8594 114.096 15.5214C113.609 15.1834 113.224 14.7169 112.94 14.122L110.709 15.1766C111.033 16.1501 111.642 16.9275 112.534 17.5089Z" fill="#1F2A2E" fill-opacity="0.7"/>
<path d="M132.739 7.04414H135.578V8.38177C135.786 7.97706 136.077 7.65285 136.451 7.40917C137.073 7.00358 137.816 6.80078 138.681 6.80078C139.601 6.80078 140.405 7.03738 141.095 7.51059C141.505 7.77873 141.825 8.10209 142.056 8.48068C142.349 8.05229 142.698 7.70864 143.103 7.44974C143.778 7.0171 144.57 6.80078 145.475 6.80078C146.273 6.80078 146.976 6.97653 147.584 7.32807C148.206 7.67958 148.693 8.17306 149.045 8.80853C149.396 9.43048 149.572 10.1606 149.572 10.9988V18.1173H146.53V11.6478C146.53 11.2152 146.449 10.8434 146.287 10.5324C146.138 10.2214 145.921 9.97806 145.638 9.80227C145.354 9.62652 145.009 9.53862 144.603 9.53862C144.211 9.53862 143.867 9.62652 143.569 9.80227C143.285 9.97806 143.062 10.2214 142.9 10.5324C142.751 10.8434 142.677 11.2152 142.677 11.6478V18.1173H139.635V11.6478C139.635 11.2152 139.554 10.8434 139.391 10.5324C139.242 10.2214 139.026 9.97806 138.742 9.80227C138.458 9.62652 138.114 9.53862 137.708 9.53862C137.316 9.53862 136.971 9.62652 136.674 9.80227C136.39 9.97806 136.167 10.2214 136.004 10.5324C135.856 10.8434 135.781 11.2152 135.781 11.6478V18.1173H132.739V7.04414Z" fill="#1F2A2E" fill-opacity="0.7"/>
<path d="M125.182 18.3604C124.29 18.3604 123.526 18.1712 122.89 17.7926C122.268 17.4005 121.795 16.8597 121.471 16.1701C121.146 15.4806 120.984 14.6762 120.984 13.7568V7.04395H124.026V13.5134C124.026 13.9325 124.107 14.3043 124.269 14.6288C124.445 14.9398 124.688 15.1832 125 15.359C125.31 15.5347 125.662 15.6226 126.054 15.6226C126.46 15.6226 126.811 15.5347 127.109 15.359C127.42 15.1832 127.656 14.9398 127.818 14.6288C127.994 14.3043 128.082 13.9325 128.082 13.5134V7.04395H131.124V18.1171H128.285V16.7696C128.027 17.2558 127.662 17.6306 127.19 17.894C126.622 18.205 125.953 18.3604 125.182 18.3604Z" fill="#1F2A2E" fill-opacity="0.7"/>
<path fill-rule="evenodd" clip-rule="evenodd" d="M86.5755 18.3606C85.4803 18.3606 84.4796 18.1105 83.5738 17.6103C82.6814 17.11 81.9649 16.4273 81.424 15.5619C80.897 14.6831 80.6332 13.6894 80.6332 12.5807C80.6332 11.4585 80.897 10.4648 81.424 9.59947C81.9649 8.73416 82.6814 8.0514 83.5738 7.55115C84.4796 7.05091 85.4803 6.80078 86.5755 6.80078C87.6704 6.80078 88.6644 7.05091 89.5568 7.55115C90.4488 8.0514 91.1589 8.73416 91.686 9.59947C92.2269 10.4648 92.4973 11.4585 92.4973 12.5807C92.4973 13.6894 92.2269 14.6831 91.686 15.5619C91.1589 16.4273 90.4488 17.11 89.5568 17.6103C88.6644 18.1105 87.6704 18.3606 86.5755 18.3606ZM86.5755 15.6228C87.1299 15.6228 87.6099 15.4943 88.0152 15.2375C88.4343 14.9806 88.7589 14.6223 88.9886 14.1626C89.2322 13.7029 89.3539 13.1756 89.3539 12.5807C89.3539 11.9858 89.2322 11.4653 88.9886 11.0191C88.7589 10.5594 88.4343 10.2011 88.0152 9.94425C87.6099 9.67384 87.1299 9.53862 86.5755 9.53862C86.0212 9.53862 85.5345 9.67384 85.1154 9.94425C84.6959 10.2011 84.3649 10.5594 84.1214 11.0191C83.8916 11.4653 83.7766 11.9858 83.7766 12.5807C83.7766 13.1756 83.8916 13.7029 84.1214 14.1626C84.3649 14.6223 84.6959 14.9806 85.1154 15.2375C85.5345 15.4943 86.0212 15.6228 86.5755 15.6228Z" fill="#1F2A2E" fill-opacity="0.7"/>
<path fill-rule="evenodd" clip-rule="evenodd" d="M71.5997 22.1531C72.3296 22.437 73.1207 22.579 73.9724 22.579C75.0404 22.579 75.9802 22.3627 76.7915 21.93C77.6163 21.4973 78.2652 20.8957 78.7384 20.1251C79.2114 19.3679 79.4482 18.5026 79.4482 17.5291V7.04414H76.6089V8.20715C76.2747 7.81519 75.8963 7.5086 75.4733 7.28751C74.8783 6.96301 74.182 6.80078 73.3841 6.80078C72.3703 6.80078 71.4645 7.03062 70.6666 7.4903C69.8691 7.94999 69.2404 8.58545 68.7806 9.39668C68.3207 10.1944 68.091 11.1137 68.091 12.1548C68.091 13.1959 68.3207 14.1288 68.7806 14.9535C69.2404 15.7647 69.8758 16.4069 70.6871 16.8802C71.4981 17.3399 72.4174 17.5697 73.445 17.5697C74.2429 17.5697 74.9391 17.421 75.5338 17.1235C75.8563 16.955 76.1473 16.7407 76.406 16.4808V17.5291C76.406 18.0024 76.3048 18.4147 76.102 18.7663C75.9126 19.1178 75.6354 19.3814 75.2705 19.5572C74.9052 19.7465 74.4726 19.8411 73.9724 19.8411C73.337 19.8411 72.7894 19.6924 72.3296 19.3949C71.8701 19.0975 71.5657 18.6919 71.417 18.1781L68.5979 19.1719C68.828 19.8614 69.1997 20.4563 69.7137 20.9565C70.2407 21.4703 70.8694 21.8692 71.5997 22.1531ZM75.2096 14.4871C74.8308 14.7034 74.3848 14.8116 73.8708 14.8116C73.3572 14.8116 72.8974 14.7034 72.4921 14.4871C72.0999 14.2572 71.7887 13.9463 71.559 13.5542C71.3427 13.1621 71.2344 12.7092 71.2344 12.1954C71.2344 11.6681 71.3427 11.2084 71.559 10.8163C71.7887 10.4107 72.0999 10.0997 72.4921 9.8834C72.8974 9.65356 73.3572 9.53862 73.8708 9.53862C74.3714 9.53862 74.8106 9.65356 75.1891 9.8834C75.5678 10.0997 75.8652 10.4107 76.0814 10.8163C76.2981 11.2084 76.406 11.6681 76.406 12.1954C76.406 12.7227 76.2981 13.1824 76.0814 13.5744C75.8786 13.9666 75.588 14.2708 75.2096 14.4871Z" fill="#1F2A2E" fill-opacity="0.7"/>
<path fill-rule="evenodd" clip-rule="evenodd" d="M61.4315 18.3606C60.3363 18.3606 59.3359 18.1105 58.4301 17.6103C57.5377 17.11 56.8212 16.4273 56.2804 15.5619C55.7529 14.6831 55.4896 13.6894 55.4896 12.5807C55.4896 11.4585 55.7529 10.4648 56.2804 9.59947C56.8212 8.73416 57.5377 8.0514 58.4301 7.55115C59.3359 7.05091 60.3363 6.80078 61.4315 6.80078C62.5267 6.80078 63.5204 7.05091 64.4128 7.55115C65.3051 8.0514 66.0149 8.73416 66.5423 9.59947C67.0832 10.4648 67.3536 11.4585 67.3536 12.5807C67.3536 13.6894 67.0832 14.6831 66.5423 15.5619C66.0149 16.4273 65.3051 17.11 64.4128 17.6103C63.5204 18.1105 62.5267 18.3606 61.4315 18.3606ZM61.4315 15.6228C61.9859 15.6228 62.4658 15.4943 62.8715 15.2375C63.2906 14.9806 63.6152 14.6223 63.845 14.1626C64.0885 13.7029 64.2099 13.1756 64.2099 12.5807C64.2099 11.9858 64.0885 11.4653 63.845 11.0191C63.6152 10.5594 63.2906 10.2011 62.8715 9.94425C62.4658 9.67384 61.9859 9.53862 61.4315 9.53862C60.8772 9.53862 60.3905 9.67384 59.9713 9.94425C59.5522 10.2011 59.2209 10.5594 58.9777 11.0191C58.748 11.4653 58.6329 11.9858 58.6329 12.5807C58.6329 13.1756 58.748 13.7029 58.9777 14.1626C59.2209 14.6223 59.5522 14.9806 59.9713 15.2375C60.3905 15.4943 60.8772 15.6228 61.4315 15.6228Z" fill="#1F2A2E" fill-opacity="0.7"/>
</g>
<defs>
<clipPath id="clip0_113_1383">
<rect width="149.735" height="40" fill="white" transform="translate(0.132751)"/>
</clipPath>
</defs>
</svg>
