<svg width="208" height="36" viewBox="0 0 208 36" fill="none" xmlns="http://www.w3.org/2000/svg">
<g clip-path="url(#clip0_2_37)">
<path d="M53.7992 2.12436C51.743 1.12543 49.4342 0.565136 46.9946 0.565136C44.5549 0.565136 42.2462 1.12543 40.1899 2.12436H53.7992Z" fill="white" fill-opacity="0.7"/>
<path d="M38.531 3.05931C38.6962 2.95229 38.8637 2.84831 39.0332 2.74746H54.9559C55.8612 3.28611 56.7073 3.91383 57.4821 4.61853H36.507C36.6232 4.51284 36.741 4.40887 36.8604 4.30668H21.2682C21.3437 4.24201 21.4199 4.17804 21.4967 4.11479H6.13837C6.40828 3.89795 6.68556 3.68991 6.96978 3.4911H22.3064C22.5135 3.34216 22.7244 3.19817 22.9388 3.05931H38.531Z" fill="white" fill-opacity="0.7"/>
<path d="M59.6977 7.11374C59.2239 6.44943 58.6993 5.82385 58.1296 5.24268H35.8594C35.7589 5.34525 35.6598 5.44921 35.562 5.55452H19.9698C19.8385 5.69603 19.7098 5.83999 19.5838 5.98632H4.18237C4.00365 6.18959 3.83014 6.39756 3.66205 6.61H19.0739C19.0246 6.67358 18.9757 6.73754 18.9274 6.8019H34.5196C34.4423 6.90487 34.3662 7.00882 34.2914 7.11374H59.6977Z" fill="white" fill-opacity="0.7"/>
<path d="M33.6735 8.04887C33.7375 7.94408 33.8026 7.84015 33.8689 7.73701H60.1202C60.504 8.33406 60.8481 8.95897 61.1489 9.60806H32.8401C32.8886 9.50351 32.9382 9.39958 32.9888 9.29619H17.3967C17.4282 9.23202 17.4601 9.16808 17.4925 9.1043H2.04828C2.15766 8.89362 2.27171 8.6856 2.39029 8.48064H17.8274C17.9098 8.33523 17.9945 8.19131 18.0814 8.04887H33.6735Z" fill="white" fill-opacity="0.7"/>
<path d="M62.0545 12.1033C61.8824 11.4623 61.6705 10.8377 61.4216 10.2322H32.5676C32.5251 10.3356 32.4836 10.4395 32.4433 10.544H16.8511C16.7959 10.6869 16.7428 10.8309 16.6917 10.9759H1.22876C1.15432 11.1818 1.0841 11.3897 1.01819 11.5995H16.4868C16.4674 11.6633 16.4483 11.7272 16.4296 11.7914H32.0219C31.9917 11.8949 31.9626 11.9989 31.9346 12.1033H62.0545Z" fill="white" fill-opacity="0.7"/>
<path d="M31.7143 13.0384C31.7354 12.934 31.7576 12.8301 31.7809 12.7266H62.2081C62.3453 13.3375 62.4466 13.9619 62.5098 14.5976H31.4793C31.4896 14.4934 31.501 14.3894 31.5134 14.2858H15.9212C15.9289 14.2217 15.9369 14.1577 15.9454 14.0939H0.455933C0.485248 13.8846 0.518717 13.6767 0.556253 13.4702H16.0407C16.0658 13.3256 16.0929 13.1816 16.122 13.0384H31.7143Z" fill="white" fill-opacity="0.7"/>
<path d="M62.5867 16.1573C62.5867 16.4714 62.5774 16.7834 62.5591 17.0928H31.4299C31.4237 16.9892 31.4186 16.8852 31.4146 16.781H15.8224C15.8199 16.7172 15.8177 16.6532 15.8159 16.5892H0.307378C0.305343 16.4855 0.304321 16.3814 0.304321 16.2773C0.304321 16.1731 0.305343 16.0691 0.307378 15.9654H15.8112C15.813 15.821 15.8167 15.6771 15.8224 15.5336H31.4146C31.4186 15.4294 31.4237 15.3255 31.4299 15.2218H62.5591C62.5774 15.5313 62.5867 15.8432 62.5867 16.1573Z" fill="white" fill-opacity="0.7"/>
<path d="M62.5098 17.7161C62.4466 18.3517 62.3453 18.9763 62.2081 19.5872H31.7809C31.7576 19.4836 31.7354 19.3796 31.7143 19.2753H16.122C16.109 19.2114 16.0965 19.1475 16.0843 19.0834H0.556253C0.518717 18.8769 0.485248 18.669 0.455933 18.4597H15.979C15.9578 18.3165 15.9385 18.1725 15.9212 18.0279H31.5134C31.501 17.9243 31.4896 17.8204 31.4793 17.7161H62.5098Z" fill="white" fill-opacity="0.7"/>
<path d="M32.4433 21.7705C32.4836 21.8751 32.5251 21.979 32.5676 22.0824H61.4216C61.6705 21.4769 61.8824 20.8523 62.0545 20.2113H31.9346C31.9626 20.3157 31.9917 20.4197 32.0219 20.5232H16.4296C16.4718 20.668 16.516 20.8119 16.5622 20.955H1.01819C1.0841 21.1648 1.15432 21.3727 1.22876 21.5786H16.7784C16.8022 21.6428 16.8265 21.7068 16.8511 21.7705H32.4433Z" fill="white" fill-opacity="0.7"/>
<path d="M61.1489 22.7057C60.8481 23.3548 60.504 23.9798 60.1202 24.5767H33.8689C33.8026 24.4737 33.7375 24.3696 33.6735 24.2649H18.0814C18.0425 24.2012 18.0041 24.1373 17.9662 24.073H2.39029C2.27171 23.868 2.15766 23.6601 2.04828 23.4493H17.617C17.5414 23.3067 17.4679 23.1628 17.3967 23.0175H32.9888C32.9382 22.9142 32.8886 22.8103 32.8401 22.7057H61.1489Z" fill="white" fill-opacity="0.7"/>
<path d="M35.562 26.7601C35.6598 26.8654 35.7589 26.9693 35.8594 27.0719H58.1296C58.6993 26.4908 59.2239 25.8652 59.6977 25.2009H34.2914C34.3662 25.3057 34.4423 25.4098 34.5196 25.5127H18.9274C19.037 25.6586 19.1491 25.8026 19.2637 25.9445H3.66205C3.83014 26.1569 4.00365 26.3649 4.18237 26.5682H19.7947C19.8526 26.6327 19.9109 26.6966 19.9698 26.7601H35.562Z" fill="white" fill-opacity="0.7"/>
<path d="M57.4821 27.6952C56.7073 28.4 55.8612 29.0277 54.9559 29.5663H39.0332C38.8637 29.4655 38.6962 29.3615 38.531 29.2545H22.9388C22.8416 29.1916 22.7452 29.1275 22.6495 29.0626H6.96978C6.68556 28.8637 6.40828 28.6557 6.13837 28.4388H21.7953C21.6164 28.2987 21.4406 28.1548 21.2682 28.0071H36.8604C36.741 27.9049 36.6232 27.8009 36.507 27.6952H57.4821Z" fill="white" fill-opacity="0.7"/>
<path d="M40.1899 30.1904C42.2462 31.1894 44.5549 31.7496 46.9946 31.7496C49.4342 31.7496 51.743 31.1894 53.7992 30.1904H40.1899Z" fill="white" fill-opacity="0.7"/>
<path d="M21.2286 1.6202C19.565 1.01486 17.7693 0.684669 15.8965 0.684669C14.0237 0.684669 12.228 1.01486 10.5644 1.6202H21.2286Z" fill="white" fill-opacity="0.7"/>
<path d="M10.5644 30.934C12.228 31.5393 14.0237 31.8695 15.8965 31.8695C17.7693 31.8695 19.565 31.5393 21.2286 30.934H10.5644Z" fill="white" fill-opacity="0.7"/>
<path d="M31.4023 0.565136C33.5752 0.565136 35.6442 1.00958 37.5234 1.81251H25.2812C27.1605 1.00958 29.2295 0.565136 31.4023 0.565136Z" fill="white" fill-opacity="0.7"/>
<path d="M31.4023 31.749C29.2295 31.749 27.1605 31.3045 25.2812 30.5016H37.5234C35.6442 31.3045 33.5752 31.749 31.4023 31.749Z" fill="white" fill-opacity="0.7"/>
<path d="M203.425 35.3535V29.8064H204.24V35.3535H203.425ZM206.569 35.3535L203.938 32.6329V32.5433L206.602 29.8064H207.62L204.679 32.8284L204.761 32.3478L207.669 35.3535H206.569Z" fill="white" fill-opacity="0.7"/>
<path d="M198.374 35.3535V29.8064H200.41C200.791 29.8064 201.122 29.8878 201.404 30.0507C201.692 30.2082 201.915 30.4227 202.072 30.6942C202.23 30.9657 202.308 31.2698 202.308 31.6065C202.308 31.9432 202.23 32.2473 202.072 32.5188C201.915 32.7904 201.692 33.0049 201.404 33.1623C201.122 33.3198 200.791 33.3985 200.41 33.3985H199.042V32.6329H200.272C200.63 32.6329 200.918 32.5433 201.136 32.3641C201.353 32.1795 201.461 31.9269 201.461 31.6065C201.461 31.2644 201.353 31.0065 201.136 30.8327C200.918 30.6589 200.63 30.5721 200.272 30.5721H199.034L199.189 30.3847V35.3535H198.374ZM201.469 35.3535L200.174 33.0483H201.07L202.365 35.3535H201.469Z" fill="white" fill-opacity="0.7"/>
<path d="M191.698 32.5844C191.698 32.1717 191.768 31.7915 191.91 31.444C192.056 31.0965 192.259 30.7951 192.52 30.5398C192.781 30.2846 193.085 30.0864 193.433 29.9452C193.786 29.804 194.168 29.7334 194.581 29.7334C194.988 29.7334 195.366 29.804 195.713 29.9452C196.061 30.0864 196.362 30.2846 196.618 30.5398C196.878 30.7951 197.079 31.0965 197.22 31.444C197.367 31.7915 197.44 32.1717 197.44 32.5844C197.44 32.9916 197.367 33.3691 197.22 33.7166C197.079 34.0642 196.878 34.3682 196.618 34.6289C196.362 34.8841 196.061 35.0824 195.713 35.2236C195.366 35.3647 194.988 35.4353 194.581 35.4353C194.168 35.4353 193.786 35.3647 193.433 35.2236C193.085 35.0824 192.781 34.8841 192.52 34.6289C192.259 34.3682 192.056 34.0642 191.91 33.7166C191.768 33.3691 191.698 32.9916 191.698 32.5844ZM192.529 32.5844C192.529 32.9808 192.618 33.3365 192.797 33.6515C192.976 33.961 193.22 34.2054 193.53 34.3845C193.84 34.5637 194.19 34.6533 194.581 34.6533C194.972 34.6533 195.319 34.5637 195.624 34.3845C195.928 34.2054 196.167 33.961 196.341 33.6515C196.52 33.3365 196.609 32.9808 196.609 32.5844C196.609 32.1825 196.52 31.8268 196.341 31.5173C196.167 31.2078 195.928 30.9634 195.624 30.7842C195.319 30.605 194.972 30.5154 194.581 30.5154C194.19 30.5154 193.84 30.605 193.53 30.7842C193.22 30.9634 192.976 31.2078 192.797 31.5173C192.618 31.8268 192.529 32.1825 192.529 32.5844Z" fill="white" fill-opacity="0.7"/>
<path d="M188.99 35.3535L187.468 30.4091L187.28 29.8064H188.079L189.635 34.9462L189.276 34.8647L190.628 29.8064H191.451L189.944 35.3535H188.99ZM185.415 35.3535L183.908 29.8064H184.731L186.083 34.8647L185.725 34.9462L187.28 29.8064H188.079L187.891 30.4091L186.368 35.3535H185.415Z" fill="white" fill-opacity="0.7"/>
<path d="M181.035 35.3535V30.4173H181.85V35.3535H181.035ZM179.3 30.5721V29.8064H183.666V30.5721H179.3Z" fill="white" fill-opacity="0.7"/>
<path d="M176.052 32.9506V32.1849H178.292V32.9506H176.052ZM176.028 30.5721L176.215 30.3114V34.71L175.987 34.5796H178.773V35.3535H175.401V29.8064H178.773V30.5721H176.028Z" fill="white" fill-opacity="0.7"/>
<path d="M173.322 35.3535L169.738 30.7024L170.194 30.5721V35.3535H169.379V29.8064H170.072L173.533 34.2946H173.2V29.8064H174.014V35.3535H173.322Z" fill="white" fill-opacity="0.7"/>
<path d="M132.551 9.05273V24.0432H137.027V9.05273H132.551Z" fill="white" fill-opacity="0.7"/>
<path d="M132.858 2.4004C132.388 2.89086 132.153 3.53462 132.153 4.33165C132.153 5.10828 132.388 5.74181 132.858 6.23228C133.349 6.70236 133.992 6.93737 134.789 6.93737C135.586 6.93737 136.22 6.70236 136.69 6.23228C137.18 5.74181 137.425 5.10828 137.425 4.33165C137.425 3.53462 137.18 2.89086 136.69 2.4004C136.22 1.90988 135.586 1.66465 134.789 1.66465C133.992 1.66465 133.349 1.90988 132.858 2.4004Z" fill="white" fill-opacity="0.7"/>
<path d="M157.912 23.7981C158.975 24.2682 160.109 24.5032 161.315 24.5032C162.459 24.5032 163.481 24.2988 164.381 23.8902C165.28 23.4814 165.985 22.9092 166.496 22.1734C167.006 21.4173 167.262 20.5487 167.262 19.5677C167.262 18.3006 166.854 17.2889 166.036 16.5329C165.239 15.7766 163.91 15.1738 162.051 14.7242C160.947 14.4585 160.212 14.2235 159.844 14.019C159.475 13.8147 159.291 13.5593 159.291 13.2527C159.291 12.9257 159.445 12.6805 159.751 12.517C160.058 12.3534 160.426 12.2717 160.855 12.2717C161.652 12.2717 162.368 12.4148 163.001 12.7009C163.635 12.987 164.176 13.3344 164.626 13.7432L167.385 11.3828C166.731 10.6061 165.903 9.95215 164.902 9.42075C163.9 8.86894 162.684 8.59307 161.253 8.59307C160.048 8.59307 159.006 8.81783 158.127 9.26752C157.248 9.71713 156.573 10.32 156.104 11.0761C155.633 11.8119 155.399 12.6294 155.399 13.5286C155.399 14.7753 155.777 15.7766 156.533 16.5329C157.309 17.2685 158.484 17.8306 160.058 18.2188C160.917 18.4437 161.57 18.6378 162.02 18.8013C162.469 18.9648 162.776 19.1283 162.94 19.2918C163.103 19.4553 163.185 19.6597 163.185 19.9049C163.185 20.191 163.042 20.4363 162.756 20.6406C162.49 20.8245 162.132 20.9165 161.683 20.9165C160.927 20.9165 160.232 20.7633 159.598 20.4567C158.965 20.1502 158.301 19.6393 157.606 18.924L155.061 21.3764C155.92 22.5208 156.87 23.3281 157.912 23.7981Z" fill="white" fill-opacity="0.7"/>
<path d="M184.674 24.0437V9.05326H187.984L188.514 10.7651C188.708 10.598 188.91 10.4361 189.119 10.2794C189.772 9.78891 190.488 9.40066 191.265 9.11454C192.041 8.82841 192.849 8.68535 193.686 8.68535C194.688 8.68535 195.485 8.85909 196.078 9.20649C196.691 9.53347 197.151 9.99333 197.457 10.586C197.503 10.6693 197.547 10.7544 197.588 10.841C197.812 10.647 198.045 10.4598 198.285 10.2794C198.938 9.78891 199.643 9.40066 200.4 9.11454C201.177 8.82841 201.983 8.68535 202.822 8.68535C203.823 8.68535 204.63 8.85909 205.244 9.20649C205.857 9.53347 206.317 9.99333 206.623 10.586C206.929 11.1787 207.144 11.8531 207.267 12.6093C207.39 13.345 207.451 14.1113 207.451 14.9084V24.0437H202.944V15.1537C202.944 14.2953 202.791 13.7333 202.484 13.4676C202.199 13.1814 201.831 13.0384 201.381 13.0384C200.727 13.0384 200.093 13.2326 199.481 13.6209C199.05 13.8789 198.65 14.1921 198.281 14.5607C198.283 14.676 198.285 14.7919 198.285 14.9084V24.0437H193.809V15.1537C193.809 14.2953 193.656 13.7333 193.349 13.4676C193.043 13.1814 192.665 13.0384 192.215 13.0384C191.581 13.0384 190.958 13.2326 190.345 13.6209C189.916 13.878 189.518 14.1899 189.149 14.5568V24.0437H184.674Z" fill="white" fill-opacity="0.7"/>
<path d="M173.677 24.4111C172.574 24.4111 171.675 24.2476 170.98 23.9206C170.305 23.5936 169.774 23.144 169.385 22.5718C169.018 21.9791 168.762 21.3149 168.619 20.5792C168.496 19.8229 168.435 19.0259 168.435 18.188V9.05273H172.911V17.9428C172.911 18.7807 173.085 19.3427 173.432 19.6288C173.78 19.8945 174.209 20.0273 174.72 20.0273C175.169 20.0273 175.609 19.9558 176.038 19.8127C176.466 19.6493 176.886 19.4244 177.294 19.1384C177.51 18.9765 177.715 18.7976 177.908 18.6016V9.05273H182.414V24.0432H179.073L178.546 22.3399C178.361 22.5018 178.169 22.6608 177.969 22.8169C177.335 23.3075 176.661 23.6958 175.946 23.9819C175.231 24.2681 174.474 24.4111 173.677 24.4111Z" fill="white" fill-opacity="0.7"/>
<path fill-rule="evenodd" clip-rule="evenodd" d="M147.631 24.4116C146.302 24.4116 145.148 24.1153 144.167 23.5226C144.109 23.4854 144.052 23.4474 143.995 23.4083C143.939 23.3696 143.884 23.33 143.829 23.2895V29.8683H139.354V9.05326H142.695L143.137 10.5461C143.465 10.197 143.829 9.89347 144.228 9.63567C145.209 9.00215 146.353 8.68535 147.662 8.68535C149.031 8.68535 150.226 9.02258 151.248 9.69703C152.291 10.351 153.098 11.2706 153.67 12.456C154.263 13.6413 154.559 15.0106 154.559 16.5638C154.559 18.0965 154.263 19.4556 153.67 20.641C153.077 21.8263 152.26 22.7562 151.218 23.4306C150.175 24.0846 148.98 24.4116 147.631 24.4116ZM146.803 20.2118C147.723 20.2118 148.479 19.8746 149.072 19.2002C149.685 18.5053 149.992 17.6266 149.992 16.5638C149.992 15.4807 149.685 14.6019 149.072 13.9274C148.479 13.2326 147.723 12.8851 146.803 12.8851C145.904 12.8851 145.148 13.2326 144.534 13.9274C143.922 14.6019 143.615 15.4704 143.615 16.5332C143.615 17.6163 143.922 18.5053 144.534 19.2002C145.148 19.8746 145.904 20.2118 146.803 20.2118Z" fill="white" fill-opacity="0.7"/>
<path fill-rule="evenodd" clip-rule="evenodd" d="M123.186 24.4116C121.632 24.4116 120.263 24.0846 119.078 23.4306C117.892 22.7562 116.973 21.8263 116.318 20.641C115.665 19.4556 115.338 18.0965 115.338 16.5638C115.338 15.0106 115.665 13.6413 116.318 12.456C116.973 11.2706 117.892 10.351 119.078 9.69703C120.263 9.02258 121.632 8.68535 123.186 8.68535C124.759 8.68535 126.138 9.02258 127.324 9.69703C128.509 10.351 129.429 11.2706 130.083 12.456C130.757 13.6413 131.095 15.0106 131.095 16.5638C131.095 18.0965 130.757 19.4556 130.083 20.641C129.429 21.8263 128.509 22.7562 127.324 23.4306C126.138 24.0846 124.759 24.4116 123.186 24.4116ZM123.186 20.0585C124.187 20.0585 124.994 19.7417 125.607 19.1082C126.241 18.4543 126.557 17.6061 126.557 16.5638C126.557 15.5011 126.241 14.6427 125.607 13.9887C124.994 13.3348 124.187 13.0078 123.186 13.0078C122.225 13.0078 121.428 13.3348 120.794 13.9887C120.181 14.6223 119.874 15.4704 119.874 16.5332C119.874 17.5959 120.181 18.4543 120.794 19.1082C121.428 19.7417 122.225 20.0585 123.186 20.0585Z" fill="white" fill-opacity="0.7"/>
<path fill-rule="evenodd" clip-rule="evenodd" d="M103.893 29.8069C104.731 30.0522 105.548 30.1748 106.345 30.1748C107.96 30.1748 109.339 29.858 110.484 29.2244C111.648 28.5909 112.537 27.6509 113.151 26.4042C113.764 25.1575 114.071 23.6554 114.071 21.8978V9.05326H110.729L110.234 10.6966C109.868 10.2744 109.45 9.91053 108.981 9.60507C108.041 8.9919 106.948 8.68535 105.701 8.68535C104.373 8.68535 103.188 9.00215 102.145 9.63567C101.103 10.2488 100.286 11.1071 99.6933 12.2107C99.1204 13.2939 98.8348 14.5508 98.8348 15.9814C98.8348 17.3915 99.1306 18.6484 99.7238 19.752C100.337 20.8555 101.154 21.7139 102.176 22.327C103.218 22.9402 104.414 23.2466 105.762 23.2466C107.029 23.2466 108.124 22.9605 109.043 22.3884C109.236 22.2667 109.42 22.1347 109.595 21.9924V22.8481C109.595 24.0539 109.298 24.9532 108.706 25.5458C108.113 26.159 107.346 26.4655 106.407 26.4655C105.589 26.4655 104.915 26.2918 104.383 25.9444C103.872 25.5969 103.361 25.0247 102.85 24.2276L99.6315 25.883L99.8772 26.4042C100.347 27.3238 100.929 28.0596 101.624 28.6114C102.319 29.1837 103.075 29.5822 103.893 29.8069ZM108.92 18.3725C108.328 19.0061 107.561 19.3228 106.621 19.3228C105.681 19.3228 104.905 19.0061 104.291 18.3725C103.699 17.739 103.402 16.9419 103.402 15.9814C103.402 14.98 103.699 14.1624 104.291 13.5289C104.905 12.8953 105.681 12.5786 106.621 12.5786C107.561 12.5786 108.328 12.8953 108.92 13.5289C109.533 14.1624 109.84 14.98 109.84 15.9814C109.84 16.9419 109.533 17.739 108.92 18.3725Z" fill="white" fill-opacity="0.7"/>
<path fill-rule="evenodd" clip-rule="evenodd" d="M90.597 24.4116C89.0443 24.4116 87.6748 24.0846 86.4891 23.4306C85.3042 22.7562 84.3847 21.8263 83.7304 20.641C83.0762 19.4556 82.749 18.0965 82.749 16.5638C82.749 15.0106 83.0762 13.6413 83.7304 12.456C84.3847 11.2706 85.3042 10.351 86.4891 9.69703C87.6748 9.02258 89.0443 8.68535 90.597 8.68535C92.1708 8.68535 93.5506 9.02258 94.7355 9.69703C95.9211 10.351 96.8407 11.2706 97.4949 12.456C98.1688 13.6413 98.5061 15.0106 98.5061 16.5638C98.5061 18.0965 98.1688 19.4556 97.4949 20.641C96.8407 21.8263 95.9211 22.7562 94.7355 23.4306C93.5506 24.0846 92.1708 24.4116 90.597 24.4116ZM90.597 20.0585C91.5988 20.0585 92.4056 19.7417 93.0192 19.1082C93.6523 18.4543 93.9693 17.6061 93.9693 16.5638C93.9693 15.5011 93.6523 14.6427 93.0192 13.9887C92.4056 13.3348 91.5988 13.0078 90.597 13.0078C89.6368 13.0078 88.8393 13.3348 88.2062 13.9887C87.5926 14.6223 87.2866 15.4704 87.2866 16.5332C87.2866 17.5959 87.5926 18.4543 88.2062 19.1082C88.8393 19.7417 89.6368 20.0585 90.597 20.0585Z" fill="white" fill-opacity="0.7"/>
<path d="M69.7742 24.043H82.4657V19.7206H74.2499V3.1667H69.7742V24.043Z" fill="white" fill-opacity="0.7"/>
</g>
<defs>
<clipPath id="clip0_2_37">
<rect width="207.391" height="36" fill="white" transform="translate(0.304321)"/>
</clipPath>
</defs>
</svg>
